Lexend-wght100.ufo
<glyph name="exclam" format="2">
	<advance width="254"/>
	<unicode hex="0021"/>
	<note>
		exclam
	</note>
	<outline>
		<contour>
			<point x="140" y="241" type="qcurve"/>
			<point x="124" y="241" type="line"/>
			<point x="120" y="335"/>
			<point x="121" y="537"/>
			<point x="121" y="630" type="qcurve"/>
			<point x="121" y="700" type="line"/>
			<point x="143" y="700" type="line"/>
			<point x="143" y="630" type="line" smooth="yes"/>
			<point x="143" y="537"/>
			<point x="144" y="335"/>
		</contour>
		<contour>
			<point x="160" y="28" type="qcurve" smooth="yes"/>
			<point x="160" y="13"/>
			<point x="144" y="-8"/>
			<point x="129" y="-8" type="qcurve" smooth="yes"/>
			<point x="114" y="-8"/>
			<point x="98" y="11"/>
			<point x="98" y="28" type="qcurve" smooth="yes"/>
			<point x="98" y="44"/>
			<point x="115" y="64"/>
			<point x="129" y="64" type="qcurve"/>
			<point x="145" y="64"/>
			<point x="160" y="45"/>
		</contour>
	</outline>
</glyph>
<glyph name="numbersign" format="2">
	<advance width="687"/>
	<unicode hex="0023"/>
	<note>
		numbersign
	</note>
	<outline>
		<contour>
			<point x="154" y="0" type="line"/>
			<point x="132" y="0" type="line"/>
			<point x="252" y="700" type="line"/>
			<point x="274" y="700" type="line"/>
		</contour>
		<contour>
			<point x="646" y="475" type="line"/>
			<point x="79" y="475" type="line"/>
			<point x="79" y="497" type="line"/>
			<point x="646" y="497" type="line"/>
		</contour>
		<contour>
			<point x="433" y="0" type="line"/>
			<point x="411" y="0" type="line"/>
			<point x="531" y="700" type="line"/>
			<point x="553" y="700" type="line"/>
		</contour>
		<contour>
			<point x="609" y="216" type="line"/>
			<point x="41" y="216" type="line"/>
			<point x="41" y="238" type="line"/>
			<point x="609" y="238" type="line"/>
		</contour>
	</outline>
</glyph>
<glyph name="dollar" format="2">
	<advance width="578"/>
	<unicode hex="0024"/>
	<anchor x="321" y="700" name="top"/>
	<anchor x="321" y="0" name="bottom"/>
	<note>
		dollar
	</note>
	<outline>
		<contour>
			<point x="288" y="359" type="line"/>
			<point x="310" y="354" type="line"/>
			<point x="310" y="-91" type="line"/>
			<point x="288" y="-91" type="line"/>
		</contour>
		<contour>
			<point x="310" y="359" type="line"/>
			<point x="288" y="363" type="line"/>
			<point x="288" y="782" type="line"/>
			<point x="310" y="782" type="line"/>
		</contour>
		<contour>
			<point x="54.49991" y="91.5007" type="qcurve"/>
			<point x="68" y="110" type="line"/>
			<point x="109" y="62"/>
			<point x="226" y="12"/>
			<point x="298" y="12" type="qcurve" smooth="yes"/>
			<point x="382" y="12"/>
			<point x="504" y="105"/>
			<point x="504" y="173" type="qcurve" smooth="yes"/>
			<point x="504" y="247"/>
			<point x="389" y="313"/>
			<point x="294" y="347" type="qcurve" smooth="yes"/>
			<point x="190" y="384"/>
			<point x="88" y="454"/>
			<point x="88" y="529" type="qcurve" smooth="yes"/>
			<point x="88" y="608"/>
			<point x="208" y="703"/>
			<point x="298" y="703" type="qcurve"/>
			<point x="376" y="703"/>
			<point x="477" y="643"/>
			<point x="509" y="605" type="qcurve"/>
			<point x="494" y="590" type="line"/>
			<point x="465" y="624"/>
			<point x="365" y="681"/>
			<point x="299" y="681" type="qcurve"/>
			<point x="217" y="681"/>
			<point x="110" y="595"/>
			<point x="110" y="526" type="qcurve" smooth="yes"/>
			<point x="110" y="466"/>
			<point x="203" y="403"/>
			<point x="307" y="366" type="qcurve" smooth="yes"/>
			<point x="411" y="329"/>
			<point x="526" y="258"/>
			<point x="526" y="170" type="qcurve" smooth="yes"/>
			<point x="526" y="94"/>
			<point x="392" y="-10"/>
			<point x="297" y="-10" type="qcurve"/>
			<point x="225" y="-10"/>
			<point x="95" y="44"/>
		</contour>
	</outline>
</glyph>
<glyph name="zero" format="2">
	<advance width="620"/>
	<unicode hex="0030"/>
	<outline>
		<contour>
			<point x="568" y="350" type="qcurve"/>
			<point x="568" y="174"/>
			<point x="436" y="-10"/>
			<point x="310" y="-10" type="qcurve"/>
			<point x="184" y="-10"/>
			<point x="52" y="174"/>
			<point x="52" y="350" type="qcurve"/>
			<point x="52" y="526"/>
			<point x="184" y="710"/>
			<point x="310" y="710" type="qcurve"/>
			<point x="436" y="710"/>
			<point x="568" y="526"/>
		</contour>
		<contour>
			<point x="75" y="350" type="qcurve"/>
			<point x="75" y="187"/>
			<point x="197" y="12"/>
			<point x="310" y="12" type="qcurve"/>
			<point x="424" y="12"/>
			<point x="545" y="187"/>
			<point x="545" y="350" type="qcurve"/>
			<point x="545" y="513"/>
			<point x="424" y="688"/>
			<point x="310" y="688" type="qcurve"/>
			<point x="197" y="688"/>
			<point x="75" y="513"/>
		</contour>
	</outline>
</glyph>
<glyph name="one" format="2">
	<advance width="379"/>
	<unicode hex="0031"/>
	<outline>
		<contour>
			<point x="201" y="8" type="line"/>
			<point x="179" y="8" type="line"/>
			<point x="179" y="678" type="line"/>
			<point x="184" y="678" type="line"/>
			<point x="45" y="585" type="line"/>
			<point x="39" y="605" type="line"/>
			<point x="191" y="710" type="line"/>
			<point x="201" y="710" type="line"/>
		</contour>
		<contour>
			<point x="319" y="22" type="line"/>
			<point x="319" y="0" type="line"/>
			<point x="62" y="0" type="line"/>
			<point x="62" y="22" type="line"/>
		</contour>
	</outline>
</glyph>
<glyph name="two" format="2">
	<advance width="548"/>
	<unicode hex="0032"/>
	<outline>
		<contour>
			<point x="94" y="22" type="line"/>
			<point x="506" y="22" type="line"/>
			<point x="506" y="0" type="line"/>
			<point x="78" y="0" type="line"/>
			<point x="72" y="13" type="line"/>
			<point x="362" y="323" type="line" smooth="yes"/>
			<point x="393" y="356"/>
			<point x="471" y="470"/>
			<point x="471" y="535" type="qcurve"/>
			<point x="471" y="600"/>
			<point x="364.13684" y="688"/>
			<point x="283" y="688" type="qcurve"/>
			<point x="223.42157" y="688"/>
			<point x="105.95173" y="612.8352"/>
			<point x="77" y="514" type="qcurve"/>
			<point x="56" y="524" type="line"/>
			<point x="84.90677" y="621.68493"/>
			<point x="206.31278" y="710"/>
			<point x="285" y="710" type="qcurve"/>
			<point x="373.1564" y="710"/>
			<point x="494" y="612"/>
			<point x="494" y="536" type="qcurve"/>
			<point x="494" y="470.10959"/>
			<point x="424" y="356"/>
			<point x="385" y="314" type="qcurve" smooth="yes"/>
			<point x="94" y="4" type="line"/>
		</contour>
	</outline>
</glyph>
<glyph name="five" format="2">
	<advance width="568"/>
	<unicode hex="0035"/>
	<outline>
		<contour>
			<point x="508" y="237" type="qcurve"/>
			<point x="508" y="132.12302"/>
			<point x="364" y="-10"/>
			<point x="257" y="-10" type="qcurve"/>
			<point x="188" y="-10"/>
			<point x="77" y="55"/>
			<point x="39" y="115" type="qcurve"/>
			<point x="58" y="133" type="line"/>
			<point x="93" y="73"/>
			<point x="202" y="12"/>
			<point x="258" y="12" type="qcurve"/>
			<point x="354" y="12"/>
			<point x="485" y="144.09052"/>
			<point x="485" y="239" type="qcurve"/>
			<point x="485" y="322.04545"/>
			<point x="370" y="442"/>
			<point x="281" y="442" type="qcurve"/>
			<point x="227" y="442"/>
			<point x="116" y="396"/>
			<point x="78" y="361" type="qcurve"/>
			<point x="65" y="377" type="line"/>
			<point x="111" y="700" type="line"/>
			<point x="487" y="700" type="line"/>
			<point x="487" y="678" type="line"/>
			<point x="116" y="678" type="line"/>
			<point x="131" y="690" type="line"/>
			<point x="87" y="379" type="line"/>
			<point x="77" y="387" type="line"/>
			<point x="120.25532" y="422.20782"/>
			<point x="223.42857" y="464"/>
			<point x="282" y="464" type="qcurve"/>
			<point x="378.14912" y="464"/>
			<point x="508" y="337.20721"/>
		</contour>
	</outline>
</glyph>
<glyph name="six" format="2">
	<advance width="605"/>
	<unicode hex="0036"/>
	<outline>
		<contour>
			<point x="523" y="222" type="qcurve" smooth="yes"/>
			<point x="523" y="125"/>
			<point x="391" y="-10"/>
			<point x="295" y="-10" type="qcurve" smooth="yes"/>
			<point x="201" y="-10"/>
			<point x="68" y="126"/>
			<point x="68" y="233" type="qcurve"/>
			<point x="66" y="290"/>
			<point x="108" y="426"/>
			<point x="156" y="501" type="qcurve"/>
			<point x="288" y="700" type="line"/>
			<point x="310" y="700" type="line"/>
			<point x="312" y="695" type="line"/>
			<point x="183" y="501" type="line" smooth="yes"/>
			<point x="141.97968" y="439.31053"/>
			<point x="93" y="330"/>
			<point x="93" y="303" type="qcurve"/>
			<point x="87" y="306" type="line"/>
			<point x="122.02964" y="382.06437"/>
			<point x="230.69082" y="455"/>
			<point x="295" y="455" type="qcurve" smooth="yes"/>
			<point x="391" y="455"/>
			<point x="523" y="321"/>
		</contour>
		<contour>
			<point x="92" y="221" type="qcurve" smooth="yes"/>
			<point x="92" y="133"/>
			<point x="211" y="12"/>
			<point x="298" y="12" type="qcurve" smooth="yes"/>
			<point x="382" y="12"/>
			<point x="500" y="134"/>
			<point x="500" y="223" type="qcurve" smooth="yes"/>
			<point x="500" y="311"/>
			<point x="382" y="433"/>
			<point x="298" y="433" type="qcurve" smooth="yes"/>
			<point x="211" y="433"/>
			<point x="92" y="310"/>
		</contour>
	</outline>
</glyph>
<glyph name="seven" format="2">
	<advance width="466"/>
	<unicode hex="0037"/>
	<outline>
		<contour>
			<point x="123.00213" y="0" type="line"/>
			<point x="98" y="0" type="line"/>
			<point x="406" y="693" type="line"/>
			<point x="414" y="678" type="line"/>
			<point x="0" y="678" type="line"/>
			<point x="0" y="700" type="line"/>
			<point x="408" y="700" type="line"/>
			<point x="424" y="680" type="line"/>
		</contour>
	</outline>
</glyph>
<glyph name="eight" format="2">
	<advance width="580"/>
	<unicode hex="0038"/>
	<outline>
		<contour>
			<point x="495" y="530" type="qcurve"/>
			<point x="495" y="477.35"/>
			<point x="416.01311" y="386.00228"/>
			<point x="347" y="374" type="qcurve"/>
			<point x="351" y="386" type="line"/>
			<point x="427.97728" y="367.00561"/>
			<point x="526" y="266.61856"/>
			<point x="526" y="193" type="qcurve"/>
			<point x="526" y="109"/>
			<point x="389" y="-3"/>
			<point x="290" y="-3" type="qcurve"/>
			<point x="192.41525" y="-3"/>
			<point x="55" y="110"/>
			<point x="55" y="193" type="qcurve"/>
			<point x="55" y="265.62371"/>
			<point x="147.02148" y="367.00498"/>
			<point x="229" y="386" type="qcurve"/>
			<point x="233" y="374" type="line"/>
			<point x="164.99242" y="383.001"/>
			<point x="86" y="477.35"/>
			<point x="86" y="530" type="qcurve"/>
			<point x="86" y="610"/>
			<point x="205" y="710"/>
			<point x="290" y="710" type="qcurve"/>
			<point x="376" y="710"/>
			<point x="495" y="610"/>
		</contour>
		<contour>
			<point x="290" y="688" type="qcurve"/>
			<point x="212" y="688"/>
			<point x="109" y="600"/>
			<point x="109" y="537" type="qcurve"/>
			<point x="109" y="473"/>
			<point x="212" y="388"/>
			<point x="290" y="388" type="qcurve" smooth="yes"/>
			<point x="369" y="388"/>
			<point x="472" y="471"/>
			<point x="472" y="537" type="qcurve"/>
			<point x="472" y="600"/>
			<point x="369" y="688"/>
		</contour>
		<contour>
			<point x="78" y="191" type="qcurve"/>
			<point x="78" y="124"/>
			<point x="203" y="19"/>
			<point x="290" y="19" type="qcurve"/>
			<point x="378" y="19"/>
			<point x="503" y="123"/>
			<point x="503" y="191" type="qcurve"/>
			<point x="503" y="269"/>
			<point x="382" y="368"/>
			<point x="290" y="368" type="qcurve" smooth="yes"/>
			<point x="199" y="368"/>
			<point x="78" y="269"/>
		</contour>
	</outline>
</glyph>
<glyph name="nine" format="2">
	<advance width="548"/>
	<unicode hex="0039"/>
	<outline>
		<contour>
			<point x="47" y="478" type="qcurve" smooth="yes"/>
			<point x="47" y="575"/>
			<point x="179" y="710"/>
			<point x="275" y="710" type="qcurve" smooth="yes"/>
			<point x="369.41593" y="710"/>
			<point x="502" y="579.03704"/>
			<point x="502" y="476" type="qcurve"/>
			<point x="502" y="406.75"/>
			<point x="441.92647" y="268.78709"/>
			<point x="403" y="199" type="qcurve" smooth="yes"/>
			<point x="292" y="0" type="line"/>
			<point x="270" y="0" type="line"/>
			<point x="268" y="5" type="line"/>
			<point x="478" y="384" type="line"/>
			<point x="481" y="387" type="line"/>
			<point x="443" y="314"/>
			<point x="339" y="245"/>
			<point x="275" y="245" type="qcurve" smooth="yes"/>
			<point x="179" y="245"/>
			<point x="47" y="379"/>
		</contour>
		<contour>
			<point x="478" y="479" type="qcurve" smooth="yes"/>
			<point x="478" y="567"/>
			<point x="359" y="688"/>
			<point x="272" y="688" type="qcurve" smooth="yes"/>
			<point x="188" y="688"/>
			<point x="70" y="566"/>
			<point x="70" y="477" type="qcurve" smooth="yes"/>
			<point x="70" y="389"/>
			<point x="188" y="267"/>
			<point x="272" y="267" type="qcurve" smooth="yes"/>
			<point x="359" y="267"/>
			<point x="478" y="390"/>
		</contour>
	</outline>
</glyph>
<glyph name="less" format="2">
	<advance width="472"/>
	<unicode hex="003C"/>
	<note>
		less
	</note>
	<outline>
		<contour>
			<point x="70" y="250" type="line"/>
			<point x="70" y="256" type="line"/>
			<point x="416" y="56" type="line"/>
			<point x="404" y="36" type="line"/>
			<point x="48" y="240" type="line"/>
			<point x="48" y="266" type="line"/>
			<point x="404" y="470" type="line"/>
			<point x="416" y="450" type="line"/>
		</contour>
	</outline>
</glyph>
<glyph name="at" format="2">
	<advance width="986"/>
	<unicode hex="0040"/>
	<guideline x="691" y="490" angle="260.1342"/>
	<note>
		at
	</note>
	<outline>
		<contour>
			<point x="931" y="384" type="qcurve" smooth="yes"/>
			<point x="931" y="229"/>
			<point x="784" y="55"/>
			<point x="699" y="55" type="qcurve"/>
			<point x="621" y="55"/>
			<point x="624" y="168"/>
			<point x="637" y="204" type="qcurve" smooth="yes"/>
			<point x="646" y="229" type="line"/>
			<point x="656" y="218" type="line"/>
			<point x="630.42997" y="143.18399"/>
			<point x="515" y="55"/>
			<point x="443" y="55" type="qcurve" smooth="yes"/>
			<point x="370" y="55"/>
			<point x="274" y="152"/>
			<point x="274" y="231" type="qcurve" smooth="yes"/>
			<point x="274" y="305.31818"/>
			<point x="321.08197" y="413.07766"/>
			<point x="359" y="449" type="qcurve" smooth="yes"/>
			<point x="392.26768" y="481.25956"/>
			<point x="465" y="510"/>
			<point x="501" y="510" type="qcurve"/>
			<point x="555.07821" y="510"/>
			<point x="656.02809" y="450.90501"/>
			<point x="677" y="380" type="qcurve"/>
			<point x="672" y="380" type="line"/>
			<point x="693.99824" y="501" type="line"/>
			<point x="715.49985" y="501" type="line"/>
			<point x="655.00006" y="186.0003" type="line"/>
			<point x="653" y="177" type="line" smooth="yes"/>
			<point x="637" y="106"/>
			<point x="664" y="77"/>
			<point x="697" y="77" type="qcurve"/>
			<point x="771" y="77"/>
			<point x="908" y="229"/>
			<point x="908" y="382" type="qcurve" smooth="yes"/>
			<point x="908" y="525"/>
			<point x="703" y="688"/>
			<point x="547" y="688" type="qcurve"/>
			<point x="335" y="688"/>
			<point x="78" y="400"/>
			<point x="78" y="231" type="qcurve"/>
			<point x="78" y="62"/>
			<point x="273" y="-140"/>
			<point x="424" y="-140" type="qcurve" smooth="yes"/>
			<point x="472" y="-140"/>
			<point x="578" y="-115"/>
			<point x="625" y="-95" type="qcurve" smooth="yes"/>
			<point x="639" y="-89"/>
			<point x="662.97621" y="-75.02379"/>
			<point x="665" y="-73" type="qcurve"/>
			<point x="677" y="-91" type="line"/>
			<point x="625" y="-123"/>
			<point x="485" y="-162"/>
			<point x="424" y="-162" type="qcurve" smooth="yes"/>
			<point x="261" y="-162"/>
			<point x="55" y="52"/>
			<point x="55" y="224" type="qcurve"/>
			<point x="55" y="326"/>
			<point x="122.53347" y="483.76739"/>
			<point x="180" y="550" type="qcurve" smooth="yes"/>
			<point x="242.71597" y="622.67089"/>
			<point x="425" y="710"/>
			<point x="546" y="710" type="qcurve"/>
			<point x="716" y="710"/>
			<point x="931" y="526"/>
		</contour>
		<contour>
			<point x="297" y="232" type="qcurve" smooth="yes"/>
			<point x="297" y="164"/>
			<point x="379.10959" y="77"/>
			<point x="445" y="77" type="qcurve" smooth="yes"/>
			<point x="528.6093" y="77"/>
			<point x="640" y="195"/>
			<point x="659" y="305" type="qcurve" smooth="yes"/>
			<point x="660" y="312"/>
			<point x="662" y="324.71429"/>
			<point x="662" y="329" type="qcurve" smooth="yes"/>
			<point x="662" y="398.92169"/>
			<point x="569" y="488"/>
			<point x="501" y="488" type="qcurve"/>
			<point x="423" y="488"/>
			<point x="297" y="345"/>
		</contour>
	</outline>
</glyph>
<glyph name="A" format="2">
	<advance width="611"/>
	<unicode hex="0041"/>
	<anchor x="601" y="0" name="ogonek"/>
	<anchor x="306" y="0" name="bottom"/>
	<anchor x="306" y="700" name="top"/>
	<note>
		A
	</note>
	<outline>
		<contour>
			<point x="304" y="682" type="qcurve"/>
			<point x="305" y="682" type="line"/>
			<point x="302.08151" y="672.27172"/>
			<point x="262.29863" y="569.62413"/>
			<point x="237" y="503" type="qcurve" smooth="yes"/>
			<point x="46" y="0" type="line"/>
			<point x="20" y="0" type="line"/>
			<point x="289" y="700" type="line"/>
			<point x="322" y="700" type="line"/>
			<point x="591" y="0" type="line"/>
			<point x="565" y="0" type="line"/>
			<point x="372" y="504" type="line" smooth="yes"/>
			<point x="347.64145" y="567.60988"/>
			<point x="307.89076" y="672.27309"/>
		</contour>
		<contour>
			<point x="299" y="230" type="line"/>
			<point x="120" y="230" type="line"/>
			<point x="128" y="253" type="line"/>
			<point x="299" y="253" type="line"/>
		</contour>
		<contour>
			<point x="493" y="230" type="line"/>
			<point x="299" y="230" type="line"/>
			<point x="299" y="253" type="line"/>
			<point x="485" y="253" type="line"/>
		</contour>
	</outline>
</glyph>
<glyph name="E" format="2">
	<advance width="566"/>
	<unicode hex="0045"/>
	<anchor x="499" y="0" name="ogonek"/>
	<anchor x="297" y="700" name="top"/>
	<anchor x="46" y="700" name="topleft"/>
	<anchor x="302" y="0" name="bottom"/>
	<note>
		E
	</note>
	<outline>
		<contour>
			<point x="132" y="0" type="line"/>
			<point x="110" y="0" type="line"/>
			<point x="110" y="700" type="line"/>
			<point x="132" y="700" type="line"/>
		</contour>
		<contour>
			<point x="495" y="0" type="line"/>
			<point x="124" y="0" type="line"/>
			<point x="124" y="22" type="line"/>
			<point x="495" y="22" type="line"/>
		</contour>
		<contour>
			<point x="443" y="351" type="line"/>
			<point x="123" y="351" type="line"/>
			<point x="123" y="373" type="line"/>
			<point x="443" y="373" type="line"/>
		</contour>
		<contour>
			<point x="501" y="678" type="line"/>
			<point x="123" y="678" type="line"/>
			<point x="123" y="700" type="line"/>
			<point x="501" y="700" type="line"/>
		</contour>
	</outline>
</glyph>
<glyph name="F" format="2">
	<advance width="575"/>
	<unicode hex="0046"/>
	<note>
		F
	</note>
	<outline>
		<contour>
			<point x="110" y="0" type="line"/>
			<point x="110" y="700" type="line"/>
			<point x="132" y="700" type="line"/>
			<point x="132" y="0" type="line"/>
		</contour>
		<contour>
			<point x="444" y="341" type="line"/>
			<point x="122" y="341" type="line"/>
			<point x="122" y="363" type="line"/>
			<point x="444" y="363" type="line"/>
		</contour>
		<contour>
			<point x="501" y="678" type="line"/>
			<point x="123" y="678" type="line"/>
			<point x="123" y="700" type="line"/>
			<point x="501" y="700" type="line"/>
		</contour>
	</outline>
</glyph>
<glyph name="G" format="2">
	<advance width="767"/>
	<unicode hex="0047"/>
	<anchor x="400" y="700" name="top"/>
	<anchor x="413" y="0" name="bottom"/>
	<note>
		G
	</note>
	<outline>
		<contour>
			<point x="55" y="346" type="qcurve"/>
			<point x="55" y="505"/>
			<point x="248" y="710"/>
			<point x="399" y="710" type="qcurve"/>
			<point x="484" y="710"/>
			<point x="620" y="639"/>
			<point x="668" y="580" type="qcurve"/>
			<point x="651" y="564" type="line"/>
			<point x="608" y="621"/>
			<point x="478" y="688"/>
			<point x="399" y="688" type="qcurve" smooth="yes"/>
			<point x="260" y="688"/>
			<point x="78" y="494"/>
			<point x="78" y="346" type="qcurve"/>
			<point x="78" y="200"/>
			<point x="261" y="12"/>
			<point x="400" y="12" type="qcurve"/>
			<point x="544" y="12"/>
			<point x="699" y="184"/>
			<point x="699" y="322" type="qcurve"/>
			<point x="699" y="341" type="line"/>
			<point x="705" y="336" type="line"/>
			<point x="409" y="336" type="line"/>
			<point x="409" y="358" type="line"/>
			<point x="722" y="358" type="line"/>
			<point x="722" y="352"/>
			<point x="722" y="345"/>
			<point x="722" y="339" type="qcurve"/>
			<point x="722" y="168"/>
			<point x="549" y="-10"/>
			<point x="400" y="-10" type="qcurve"/>
			<point x="249" y="-10"/>
			<point x="55" y="189"/>
		</contour>
	</outline>
</glyph>
<glyph name="H" format="2">
	<advance width="732"/>
	<unicode hex="0048"/>
	<anchor x="371" y="0" name="bottom"/>
	<anchor x="371" y="700" name="top"/>
	<anchor x="36" y="700" name="topleft"/>
	<anchor x="371" y="350" name="center"/>
	<note>
		H
	</note>
	<outline>
		<contour>
			<point x="110" y="700" type="line"/>
			<point x="132" y="700" type="line"/>
			<point x="132" y="0" type="line"/>
			<point x="110" y="0" type="line"/>
		</contour>
		<contour>
			<point x="599" y="700" type="line"/>
			<point x="621" y="700" type="line"/>
			<point x="621" y="0" type="line"/>
			<point x="599" y="0" type="line"/>
		</contour>
		<contour>
			<point x="121" y="338" type="line"/>
			<point x="121" y="360" type="line"/>
			<point x="610" y="360" type="line"/>
			<point x="610" y="338" type="line"/>
		</contour>
	</outline>
</glyph>
<glyph name="I" format="2">
	<advance width="386"/>
	<unicode hex="0049"/>
	<anchor x="340" y="0" name="ogonek"/>
	<anchor x="193" y="700" name="top"/>
	<anchor x="91" y="700" name="topleft"/>
	<anchor x="193" y="0" name="bottom"/>
	<note>
		I
	</note>
	<outline>
		<contour>
			<point x="204" y="700" type="qcurve"/>
			<point x="204" y="0" type="line"/>
			<point x="182" y="0" type="line"/>
			<point x="182" y="700" type="line"/>
			<point x="210" y="700"/>
			<point x="176" y="700"/>
		</contour>
		<contour>
			<point x="336" y="700" type="line"/>
			<point x="336" y="678" type="line"/>
			<point x="50" y="678" type="line"/>
			<point x="50" y="700" type="line"/>
		</contour>
		<contour>
			<point x="336" y="22" type="line"/>
			<point x="336" y="0" type="line"/>
			<point x="50" y="0" type="line"/>
			<point x="50" y="22" type="line"/>
		</contour>
	</outline>
</glyph>
<glyph name="K" format="2">
	<advance width="636"/>
	<unicode hex="004B"/>
	<anchor x="373" y="700" name="top"/>
	<anchor x="361" y="0" name="bottom"/>
	<note>
		K
	</note>
	<outline>
		<contour>
			<point x="110" y="0" type="line"/>
			<point x="110" y="700" type="line"/>
			<point x="132" y="700" type="line"/>
			<point x="132" y="0" type="line"/>
		</contour>
		<contour>
			<point x="120" y="234" type="line"/>
			<point x="120" y="265" type="line"/>
			<point x="566" y="700" type="line"/>
			<point x="598" y="700" type="line"/>
		</contour>
		<contour>
			<point x="587" y="0" type="line"/>
			<point x="282" y="404" type="line"/>
			<point x="299" y="420" type="line"/>
			<point x="616" y="0" type="line"/>
		</contour>
	</outline>
</glyph>
<glyph name="L" format="2">
	<advance width="533"/>
	<unicode hex="004C"/>
	<anchor x="324" y="0" name="bottom"/>
	<anchor x="141" y="700" name="top"/>
	<anchor x="484" y="700" name="topright"/>
	<anchor x="380" y="350" name="center"/>
	<note>
		L
	</note>
	<outline>
		<contour>
			<point x="122" y="22" type="line"/>
			<point x="483" y="22" type="line"/>
			<point x="483" y="0" type="line"/>
			<point x="110" y="0" type="line"/>
			<point x="110" y="700" type="line"/>
			<point x="132" y="700" type="line"/>
			<point x="132" y="13" type="line"/>
		</contour>
	</outline>
</glyph>
<glyph name="T" format="2">
	<advance width="488"/>
	<unicode hex="0054"/>
	<anchor x="243" y="350" name="center"/>
	<anchor x="244" y="0" name="bottom"/>
	<anchor x="243" y="700" name="top"/>
	<note>
		T
	</note>
	<outline>
		<contour>
			<point x="255" y="0" type="line"/>
			<point x="233" y="0" type="line"/>
			<point x="233" y="688" type="line"/>
			<point x="255" y="688" type="line"/>
		</contour>
		<contour>
			<point x="468" y="678" type="line"/>
			<point x="20" y="678" type="line"/>
			<point x="20" y="700" type="line"/>
			<point x="468" y="700" type="line"/>
		</contour>
	</outline>
</glyph>
<glyph name="U" format="2">
	<advance width="744"/>
	<unicode hex="0055"/>
	<anchor x="490" y="10" name="ogonek"/>
	<anchor x="368" y="700" name="top"/>
	<anchor x="588" y="684" name="topright"/>
	<anchor x="368" y="0" name="bottom"/>
	<note>
		U
	</note>
	<outline>
		<contour>
			<point x="612" y="700" type="line"/>
			<point x="634" y="700" type="line"/>
			<point x="634" y="269" type="line"/>
			<point x="634" y="149"/>
			<point x="484" y="-6"/>
			<point x="368" y="-6" type="qcurve"/>
			<point x="255" y="-6"/>
			<point x="111" y="149"/>
			<point x="110" y="269" type="qcurve"/>
			<point x="110" y="700" type="line"/>
			<point x="132" y="700" type="line"/>
			<point x="132" y="278" type="line"/>
			<point x="132" y="163"/>
			<point x="263" y="16"/>
			<point x="368" y="16" type="qcurve"/>
			<point x="476" y="16"/>
			<point x="612" y="163"/>
			<point x="612" y="278" type="qcurve"/>
		</contour>
	</outline>
</glyph>
<glyph name="V" format="2">
	<advance width="604"/>
	<unicode hex="0056"/>
	<guideline x="790" y="35" angle="0"/>
	<anchor x="301" y="701" name="top"/>
	<anchor x="301" y="1" name="bottom"/>
	<note>
		V
	</note>
	<outline>
		<contour>
			<point x="288" y="0" type="line"/>
			<point x="20" y="700" type="line"/>
			<point x="46" y="700" type="line"/>
			<point x="235" y="201" type="line" smooth="yes"/>
			<point x="260.74213" y="133.03533"/>
			<point x="303.81865" y="18.45336"/>
			<point x="308" y="8" type="qcurve"/>
			<point x="295" y="8" type="line"/>
			<point x="298.1465" y="18.48833"/>
			<point x="342.55405" y="129.29744"/>
			<point x="370" y="202" type="qcurve" smooth="yes"/>
			<point x="558" y="700" type="line"/>
			<point x="584" y="700" type="line"/>
			<point x="315" y="0" type="line"/>
		</contour>
	</outline>
</glyph>
<glyph name="X" format="2">
	<advance width="584"/>
	<unicode hex="0058"/>
	<anchor x="289" y="700" name="top"/>
	<anchor x="289" y="0" name="bottom"/>
	<note>
		X
	</note>
	<outline>
		<contour>
			<point x="524" y="700" type="line"/>
			<point x="552" y="700" type="line"/>
			<point x="299" y="352" type="line"/>
			<point x="282" y="365" type="line"/>
		</contour>
		<contour>
			<point x="27" y="700" type="line"/>
			<point x="56" y="700" type="line"/>
			<point x="295" y="366" type="line"/>
			<point x="562" y="0" type="line"/>
			<point x="533" y="0" type="line"/>
			<point x="281" y="348" type="line"/>
		</contour>
		<contour>
			<point x="50" y="0" type="line"/>
			<point x="22" y="0" type="line"/>
			<point x="281" y="363" type="line"/>
			<point x="297" y="350" type="line"/>
		</contour>
	</outline>
</glyph>
<glyph name="Z" format="2">
	<advance width="634"/>
	<unicode hex="005A"/>
	<anchor x="328" y="700" name="top"/>
	<anchor x="328" y="0" name="bottom"/>
	<note>
		Z
	</note>
	<outline>
		<contour>
			<point x="86" y="700" type="line"/>
			<point x="563.00061" y="700" type="line"/>
			<point x="563.00061" y="677.49887" type="line"/>
			<point x="78" y="10" type="line"/>
			<point x="75" y="22" type="line"/>
			<point x="574" y="22" type="line"/>
			<point x="574" y="0" type="line"/>
			<point x="60" y="0" type="line"/>
			<point x="60" y="23.50113" type="line"/>
			<point x="545" y="692" type="line"/>
			<point x="557" y="678" type="line"/>
			<point x="86" y="678" type="line"/>
		</contour>
	</outline>
</glyph>
<glyph name="bracketleft" format="2">
	<advance width="319"/>
	<unicode hex="005B"/>
	<note>
		bracketleft
	</note>
	<outline>
		<contour>
			<point x="287" y="-190" type="line"/>
			<point x="75" y="-190" type="line"/>
			<point x="75" y="700" type="line"/>
			<point x="287" y="700" type="line"/>
			<point x="287" y="678" type="line"/>
			<point x="88" y="678" type="line"/>
			<point x="98" y="686" type="line"/>
			<point x="98" y="-180" type="line"/>
			<point x="87" y="-168" type="line"/>
			<point x="287" y="-168" type="line"/>
		</contour>
	</outline>
</glyph>
<glyph name="backslash" format="2">
	<advance width="521"/>
	<unicode hex="005C"/>
	<note>
		backslash
	</note>
	<outline>
		<contour>
			<point x="457" y="-95" type="line"/>
			<point x="431" y="-95" type="line"/>
			<point x="37" y="700" type="line"/>
			<point x="63" y="700" type="line"/>
		</contour>
	</outline>
</glyph>
<glyph name="asciicircum" format="2">
	<advance width="584"/>
	<unicode hex="005E"/>
	<note>
		asciicircum
	</note>
	<outline>
		<contour>
			<point x="77" y="368" type="line"/>
			<point x="50" y="368" type="line"/>
			<point x="281" y="727" type="line"/>
			<point x="303" y="727" type="line"/>
			<point x="534" y="368" type="line"/>
			<point x="507" y="368" type="line"/>
			<point x="288" y="708" type="line"/>
			<point x="296" y="708" type="line"/>
		</contour>
	</outline>
</glyph>
<glyph name="underscore" format="2">
	<advance width="696"/>
	<unicode hex="005F"/>
	<note>
		underscore
	</note>
	<outline>
		<contour>
			<point x="640" y="-105" type="line"/>
			<point x="56" y="-105" type="line"/>
			<point x="56" y="-82" type="line"/>
			<point x="640" y="-82" type="line"/>
		</contour>
	</outline>
</glyph>
<glyph name="c" format="2">
	<advance width="526"/>
	<unicode hex="0063"/>
	<anchor x="312" y="530" name="top"/>
	<anchor x="272" y="0" name="bottom"/>
	<note>
		c
	</note>
	<outline>
		<contour>
			<point x="306" y="508" type="qcurve"/>
			<point x="200" y="508"/>
			<point x="63.0041" y="370.43841"/>
			<point x="62" y="263" type="qcurve" smooth="yes"/>
			<point x="63" y="153.00007"/>
			<point x="199.86992" y="12"/>
			<point x="306" y="12" type="qcurve"/>
			<point x="361.61111" y="12"/>
			<point x="454.84186" y="54.8179"/>
			<point x="488" y="93" type="qcurve"/>
			<point x="504" y="77" type="line"/>
			<point x="467.83515" y="36.81683"/>
			<point x="368" y="-10"/>
			<point x="306" y="-10" type="qcurve"/>
			<point x="189" y="-10"/>
			<point x="40" y="144"/>
			<point x="40" y="263" type="qcurve"/>
			<point x="40" y="380.43985"/>
			<point x="189" y="530"/>
			<point x="306" y="530" type="qcurve"/>
			<point x="369" y="530"/>
			<point x="470.61417" y="483.44095"/>
			<point x="506" y="443" type="qcurve"/>
			<point x="490" y="426" type="line"/>
			<point x="456.60964" y="464.44951"/>
			<point x="363" y="508"/>
		</contour>
	</outline>
</glyph>
<glyph name="e" format="2">
	<advance width="545"/>
	<unicode hex="0065"/>
	<anchor x="398" y="10" name="ogonek"/>
	<anchor x="292" y="0" name="bottom"/>
	<anchor x="293" y="530" name="top"/>
	<note>
		e
	</note>
	<outline>
		<contour>
			<point x="472" y="83" type="qcurve"/>
			<point x="484" y="65" type="line"/>
			<point x="447" y="31"/>
			<point x="354" y="-10"/>
			<point x="297" y="-10" type="qcurve"/>
			<point x="183" y="-10"/>
			<point x="40" y="144"/>
			<point x="40" y="263" type="qcurve"/>
			<point x="40" y="380.43985"/>
			<point x="177" y="530"/>
			<point x="285" y="530" type="qcurve"/>
			<point x="384" y="530"/>
			<point x="510" y="401.46218"/>
			<point x="510" y="291" type="qcurve"/>
			<point x="509" y="265" type="line"/>
			<point x="52" y="265" type="line"/>
			<point x="52" y="287" type="line"/>
			<point x="498" y="287" type="line"/>
			<point x="486" y="270" type="line"/>
			<point x="488" y="295" type="line"/>
			<point x="488" y="390.44811"/>
			<point x="371" y="508"/>
			<point x="288" y="508" type="qcurve"/>
			<point x="186" y="508"/>
			<point x="63" y="370"/>
			<point x="62" y="263" type="qcurve" smooth="yes"/>
			<point x="63" y="153"/>
			<point x="194" y="12"/>
			<point x="297" y="12" type="qcurve"/>
			<point x="349" y="12"/>
			<point x="437" y="50"/>
		</contour>
	</outline>
</glyph>
<glyph name="f" format="2">
	<advance width="340"/>
	<unicode hex="0066"/>
	<anchor x="197" y="510" name="top"/>
	<anchor x="197" y="0" name="bottom"/>
	<note>
		f
	</note>
	<outline>
		<contour>
			<point x="314" y="525" type="line"/>
			<point x="314" y="503" type="line"/>
			<point x="30" y="503" type="line"/>
			<point x="30" y="525" type="line"/>
		</contour>
		<contour>
			<point x="340" y="708" type="qcurve"/>
			<point x="326" y="693" type="line"/>
			<point x="308.46183" y="713.4612"/>
			<point x="269" y="728"/>
			<point x="243" y="728" type="qcurve"/>
			<point x="207" y="728"/>
			<point x="162" y="684"/>
			<point x="162" y="625" type="qcurve"/>
			<point x="162" y="0" type="line" smooth="yes"/>
			<point x="162" y="0"/>
			<point x="146" y="0"/>
			<point x="140" y="0" type="qcurve"/>
			<point x="140" y="626" type="line"/>
			<point x="140" y="692"/>
			<point x="198" y="750"/>
			<point x="245" y="750" type="qcurve"/>
			<point x="281" y="750"/>
			<point x="326" y="727"/>
		</contour>
	</outline>
</glyph>
<glyph name="k" format="2">
	<advance width="483"/>
	<unicode hex="006B"/>
	<anchor x="263" y="510" name="top"/>
	<anchor x="263" y="0" name="bottom"/>
	<note>
		k
	</note>
	<outline>
		<contour>
			<point x="99" y="0" type="line"/>
			<point x="77" y="0" type="line"/>
			<point x="77" y="740" type="line"/>
			<point x="99" y="740" type="line"/>
		</contour>
		<contour>
			<point x="408" y="525" type="line"/>
			<point x="440" y="525" type="line"/>
			<point x="91" y="179" type="line"/>
			<point x="91" y="211" type="line"/>
		</contour>
		<contour>
			<point x="474" y="0" type="line"/>
			<point x="443" y="0" type="line"/>
			<point x="190" y="291" type="line"/>
			<point x="207" y="307" type="line"/>
		</contour>
	</outline>
</glyph>
<glyph name="p" format="2">
	<advance width="605"/>
	<unicode hex="0070"/>
	<anchor x="317" y="510" name="top"/>
	<anchor x="317" y="0" name="bottom"/>
	<note>
		p
	</note>
	<outline>
		<contour>
			<point x="311" y="530" type="qcurve"/>
			<point x="421" y="530"/>
			<point x="565" y="379"/>
			<point x="565" y="262" type="qcurve"/>
			<point x="565" y="144"/>
			<point x="418" y="-10"/>
			<point x="315" y="-10" type="qcurve"/>
			<point x="235" y="-10"/>
			<point x="103" y="93"/>
			<point x="89" y="170" type="qcurve"/>
			<point x="95" y="167" type="line"/>
			<point x="95" y="-230" type="line"/>
			<point x="73" y="-230" type="line"/>
			<point x="73" y="525" type="line"/>
			<point x="93" y="525" type="line"/>
			<point x="95" y="348" type="line"/>
			<point x="86" y="345" type="line"/>
			<point x="106" y="426"/>
			<point x="230" y="530"/>
		</contour>
		<contour>
			<point x="543" y="262" type="qcurve"/>
			<point x="543" y="368"/>
			<point x="415" y="508"/>
			<point x="312" y="508" type="qcurve"/>
			<point x="220" y="508"/>
			<point x="95" y="370"/>
			<point x="95" y="260" type="qcurve"/>
			<point x="95" y="152"/>
			<point x="220" y="12"/>
			<point x="314" y="12" type="qcurve"/>
			<point x="415" y="12"/>
			<point x="543" y="153"/>
		</contour>
	</outline>
</glyph>
<glyph name="s" format="2">
	<advance width="479"/>
	<unicode hex="0073"/>
	<anchor x="238" y="530" name="top"/>
	<anchor x="238" y="0" name="bottom"/>
	<note>
		s
	</note>
	<outline>
		<contour>
			<point x="45" y="81" type="qcurve"/>
			<point x="62" y="96" type="line"/>
			<point x="90" y="59"/>
			<point x="186" y="12"/>
			<point x="250" y="12" type="qcurve"/>
			<point x="331" y="12"/>
			<point x="403" y="86"/>
			<point x="403" y="133" type="qcurve"/>
			<point x="403" y="182"/>
			<point x="320" y="238"/>
			<point x="241" y="256" type="qcurve" smooth="yes"/>
			<point x="154.28744" y="275.93392"/>
			<point x="65" y="343.60544"/>
			<point x="65" y="393" type="qcurve"/>
			<point x="65" y="454.97619"/>
			<point x="160" y="530"/>
			<point x="240" y="530" type="qcurve"/>
			<point x="293" y="530"/>
			<point x="386.77806" y="486.09226"/>
			<point x="422" y="445" type="qcurve"/>
			<point x="406" y="427" type="line"/>
			<point x="372.83434" y="465.04296"/>
			<point x="290" y="508"/>
			<point x="240" y="508" type="qcurve"/>
			<point x="167" y="508"/>
			<point x="87" y="443.43363"/>
			<point x="87" y="394" type="qcurve"/>
			<point x="87" y="354"/>
			<point x="167.30348" y="296.92997"/>
			<point x="245" y="279" type="qcurve" smooth="yes"/>
			<point x="336" y="258"/>
			<point x="425" y="193"/>
			<point x="425" y="133" type="qcurve" smooth="yes"/>
			<point x="425" y="68"/>
			<point x="331" y="-10"/>
			<point x="248" y="-10" type="qcurve"/>
			<point x="182" y="-10"/>
			<point x="74" y="40"/>
		</contour>
	</outline>
</glyph>
<glyph name="t" format="2">
	<advance width="350"/>
	<unicode hex="0074"/>
	<anchor x="167" y="0" name="bottom"/>
	<anchor x="174" y="646" name="top"/>
	<anchor x="351" y="700" name="topright"/>
	<anchor x="173" y="256" name="center"/>
	<note>
		t
	</note>
	<outline>
		<contour>
			<point x="185" y="659" type="line"/>
			<point x="185" y="0" type="line"/>
			<point x="163" y="0" type="line"/>
			<point x="163" y="659" type="line"/>
		</contour>
		<contour>
			<point x="335" y="525" type="line"/>
			<point x="335" y="503" type="line"/>
			<point x="20" y="503" type="line"/>
			<point x="20" y="525" type="line"/>
		</contour>
	</outline>
</glyph>
<glyph name="u" format="2">
	<advance width="538"/>
	<unicode hex="0075"/>
	<anchor x="495" y="10" name="ogonek"/>
	<anchor x="271" y="510" name="top"/>
	<anchor x="484" y="510" name="topright"/>
	<anchor x="264" y="0" name="bottom"/>
	<note>
		u
	</note>
	<outline>
		<contour>
			<point x="265" y="12" type="qcurve"/>
			<point x="338" y="12"/>
			<point x="444" y="117"/>
			<point x="444" y="149" type="qcurve"/>
			<point x="444" y="525" type="line"/>
			<point x="466" y="525" type="line"/>
			<point x="466" y="0" type="line"/>
			<point x="446" y="0" type="line"/>
			<point x="444" y="121" type="line"/>
			<point x="453" y="123" type="line"/>
			<point x="435.48201" y="69.41557"/>
			<point x="330" y="-10"/>
			<point x="263" y="-10" type="qcurve"/>
			<point x="172" y="-10"/>
			<point x="73" y="88.37624"/>
			<point x="73" y="197" type="qcurve"/>
			<point x="73" y="525" type="line"/>
			<point x="95" y="525" type="line"/>
			<point x="95" y="197" type="line"/>
			<point x="95" y="99.36111"/>
			<point x="183" y="12"/>
		</contour>
	</outline>
</glyph>
<glyph name="v" format="2">
	<advance width="467"/>
	<unicode hex="0076"/>
	<anchor x="245" y="510" name="top"/>
	<anchor x="245" y="0" name="bottom"/>
	<note>
		v
	</note>
	<outline>
		<contour>
			<point x="15" y="525" type="line"/>
			<point x="40" y="525" type="line"/>
			<point x="240" y="24" type="line"/>
			<point x="227" y="24" type="line"/>
			<point x="427" y="525" type="line"/>
			<point x="452" y="525" type="line"/>
			<point x="241" y="0" type="line"/>
			<point x="226" y="0" type="line"/>
		</contour>
	</outline>
</glyph>
<glyph name="sterling" format="2">
	<advance width="610"/>
	<unicode hex="00A3"/>
	<note>
		sterling
	</note>
	<outline>
		<contour>
			<point x="437" y="353" type="line"/>
			<point x="59" y="353" type="line"/>
			<point x="59" y="375" type="line"/>
			<point x="437" y="375" type="line"/>
		</contour>
		<contour>
			<point x="199" y="69" type="qcurve"/>
			<point x="223.25781" y="69"/>
			<point x="280.44109" y="55.80279"/>
			<point x="334" y="39" type="qcurve" smooth="yes"/>
			<point x="383" y="24"/>
			<point x="429" y="17"/>
			<point x="447" y="17" type="qcurve"/>
			<point x="471.41758" y="17"/>
			<point x="522" y="33"/>
			<point x="548" y="49" type="qcurve"/>
			<point x="561.50058" y="31.00012" type="line"/>
			<point x="535.00049" y="14.99988"/>
			<point x="478" y="-5"/>
			<point x="447" y="-5" type="qcurve"/>
			<point x="428" y="-5"/>
			<point x="372" y="3"/>
			<point x="313" y="20.49967" type="qcurve" smooth="yes"/>
			<point x="260" y="36"/>
			<point x="214" y="47"/>
			<point x="199" y="47" type="qcurve"/>
			<point x="171" y="47"/>
			<point x="106" y="28"/>
			<point x="73" y="13" type="qcurve"/>
			<point x="62" y="32" type="line"/>
			<point x="92.74542" y="46.41191"/>
			<point x="159.04167" y="69"/>
		</contour>
		<contour>
			<point x="230" y="202" type="qcurve"/>
			<point x="230" y="160.84181"/>
			<point x="204.96483" y="86.66958"/>
			<point x="168" y="47" type="qcurve"/>
			<point x="148" y="62" type="line"/>
			<point x="172" y="75"/>
			<point x="207" y="153.34289"/>
			<point x="207" y="201" type="qcurve"/>
			<point x="207" y="229"/>
			<point x="193.12788" y="291.61453"/>
			<point x="172.99939" y="352" type="qcurve" smooth="yes"/>
			<point x="153.49942" y="413.99988"/>
			<point x="144" y="475"/>
			<point x="144" y="502" type="qcurve"/>
			<point x="144" y="588"/>
			<point x="250" y="695"/>
			<point x="340" y="695" type="qcurve"/>
			<point x="400" y="695"/>
			<point x="480" y="652"/>
			<point x="509" y="611" type="qcurve"/>
			<point x="491" y="597" type="line"/>
			<point x="454" y="643"/>
			<point x="384" y="673"/>
			<point x="340" y="673" type="qcurve"/>
			<point x="264" y="673"/>
			<point x="167" y="576"/>
			<point x="167" y="501" type="qcurve"/>
			<point x="167" y="477"/>
			<point x="179.37065" y="416.4003"/>
			<point x="200.00091" y="353" type="qcurve" smooth="yes"/>
			<point x="221.90306" y="288.44629"/>
			<point x="230" y="225.41085"/>
		</contour>
	</outline>
</glyph>
<glyph name="dieresis" format="2">
	<advance width="288"/>
	<unicode hex="00A8"/>
	<anchor x="210" y="515" name="_top"/>
	<outline>
		<contour>
			<point x="96" y="683" type="qcurve" smooth="yes"/>
			<point x="96" y="671"/>
			<point x="83" y="656"/>
			<point x="69" y="656" type="qcurve" smooth="yes"/>
			<point x="57" y="656"/>
			<point x="42" y="671"/>
			<point x="42" y="683" type="qcurve" smooth="yes"/>
			<point x="42" y="694"/>
			<point x="56" y="710"/>
			<point x="69" y="710" type="qcurve" smooth="yes"/>
			<point x="83" y="710"/>
			<point x="96" y="695"/>
		</contour>
		<contour>
			<point x="246" y="683" type="qcurve" smooth="yes"/>
			<point x="246" y="671"/>
			<point x="233" y="656"/>
			<point x="219" y="656" type="qcurve" smooth="yes"/>
			<point x="207" y="656"/>
			<point x="192" y="671"/>
			<point x="192" y="683" type="qcurve" smooth="yes"/>
			<point x="192" y="694"/>
			<point x="206" y="710"/>
			<point x="219" y="710" type="qcurve" smooth="yes"/>
			<point x="233" y="710"/>
			<point x="246" y="695"/>
		</contour>
	</outline>
</glyph>
<glyph name="copyright" format="2">
	<advance width="786"/>
	<unicode hex="00A9"/>
	<guideline x="727" y="521" angle="270"/>
	<guideline x="622" y="685" angle="0"/>
	<guideline x="541" y="707" angle="0"/>
	<guideline x="750" y="554" angle="270"/>
	<note>
		copyright
	</note>
	<outline>
		<contour>
			<point x="750" y="349" type="qcurve" smooth="yes"/>
			<point x="750" y="199"/>
			<point x="542" y="-8"/>
			<point x="392" y="-8" type="qcurve" smooth="yes"/>
			<point x="242" y="-8"/>
			<point x="35" y="199"/>
			<point x="35" y="349" type="qcurve" smooth="yes"/>
			<point x="35" y="499"/>
			<point x="242" y="707"/>
			<point x="392" y="707" type="qcurve" smooth="yes"/>
			<point x="542" y="707"/>
			<point x="750" y="499"/>
		</contour>
		<contour>
			<point x="58" y="350" type="qcurve" smooth="yes"/>
			<point x="58" y="209"/>
			<point x="252" y="14"/>
			<point x="393" y="14" type="qcurve" smooth="yes"/>
			<point x="533" y="14"/>
			<point x="727" y="209"/>
			<point x="727" y="350" type="qcurve" smooth="yes"/>
			<point x="727" y="490"/>
			<point x="533" y="685"/>
			<point x="393" y="685" type="qcurve" smooth="yes"/>
			<point x="252" y="685"/>
			<point x="58" y="490"/>
		</contour>
		<contour>
			<point x="398" y="142" type="qcurve" smooth="yes"/>
			<point x="312" y="142"/>
			<point x="194" y="260"/>
			<point x="194" y="350" type="qcurve" smooth="yes"/>
			<point x="194" y="436"/>
			<point x="312" y="557"/>
			<point x="398" y="557" type="qcurve" smooth="yes"/>
			<point x="432" y="557"/>
			<point x="498" y="534"/>
			<point x="527" y="512" type="qcurve"/>
			<point x="514" y="494" type="line"/>
			<point x="499" y="506"/>
			<point x="439" y="535"/>
			<point x="398" y="535" type="qcurve" smooth="yes"/>
			<point x="323" y="535"/>
			<point x="216" y="423"/>
			<point x="216" y="350" type="qcurve" smooth="yes"/>
			<point x="216" y="273"/>
			<point x="322" y="164"/>
			<point x="398" y="164" type="qcurve" smooth="yes"/>
			<point x="436" y="164"/>
			<point x="492" y="183"/>
			<point x="519" y="201" type="qcurve"/>
			<point x="531" y="185" type="line"/>
			<point x="501" y="164"/>
			<point x="433" y="142"/>
		</contour>
	</outline>
</glyph>
<glyph name="ordfeminine" format="2">
	<advance width="365"/>
	<unicode hex="00AA"/>
	<note>
		ordfeminine
	</note>
	<outline>
		<contour>
			<point x="176" y="402" type="qcurve" smooth="yes"/>
			<point x="114" y="402"/>
			<point x="30" y="493.26036"/>
			<point x="30" y="561" type="qcurve" smooth="yes"/>
			<point x="30" y="628.76471"/>
			<point x="114" y="721"/>
			<point x="176" y="721" type="qcurve" smooth="yes"/>
			<point x="219" y="721"/>
			<point x="287.13397" y="677.58693"/>
			<point x="299" y="641" type="qcurve"/>
			<point x="290" y="644" type="line"/>
			<point x="291" y="716" type="line"/>
			<point x="310" y="716" type="line"/>
			<point x="310" y="403" type="line"/>
			<point x="290" y="403" type="line"/>
			<point x="290" y="478" type="line"/>
			<point x="299" y="484" type="line"/>
			<point x="287.1314" y="446.41609"/>
			<point x="219" y="402"/>
		</contour>
		<contour>
			<point x="50" y="561" type="qcurve"/>
			<point x="50" y="502.22819"/>
			<point x="121" y="422"/>
			<point x="175" y="422" type="qcurve"/>
			<point x="225.43103" y="422"/>
			<point x="292" y="484"/>
			<point x="292" y="561" type="qcurve"/>
			<point x="292" y="639"/>
			<point x="224.42241" y="701"/>
			<point x="175" y="701" type="qcurve"/>
			<point x="121" y="701"/>
			<point x="50" y="620.73333"/>
		</contour>
	</outline>
</glyph>
<glyph name="registered" format="2">
	<advance width="525"/>
	<unicode hex="00AE"/>
	<note>
		registered
	</note>
	<outline>
		<contour>
			<point x="490" y="483" type="qcurve" smooth="yes"/>
			<point x="490" y="389"/>
			<point x="355" y="257"/>
			<point x="259" y="257" type="qcurve" smooth="yes"/>
			<point x="164" y="257"/>
			<point x="28" y="389"/>
			<point x="28" y="483" type="qcurve" smooth="yes"/>
			<point x="28" y="577"/>
			<point x="165" y="709"/>
			<point x="259" y="709" type="qcurve" smooth="yes"/>
			<point x="355" y="709"/>
			<point x="490" y="577"/>
		</contour>
		<contour>
			<point x="345" y="532" type="qcurve" smooth="yes"/>
			<point x="345" y="502"/>
			<point x="301" y="464"/>
			<point x="268" y="464" type="qcurve" smooth="yes"/>
			<point x="204" y="464" type="line"/>
			<point x="211" y="469" type="line"/>
			<point x="211" y="367" type="line"/>
			<point x="191" y="367" type="line"/>
			<point x="191" y="606" type="line"/>
			<point x="268" y="606" type="line" smooth="yes"/>
			<point x="303" y="606"/>
			<point x="345" y="565"/>
		</contour>
		<contour>
			<point x="204" y="484" type="line"/>
			<point x="263" y="484" type="line" smooth="yes"/>
			<point x="290" y="484"/>
			<point x="324" y="512"/>
			<point x="324" y="533" type="qcurve"/>
			<point x="324" y="558"/>
			<point x="295" y="586"/>
			<point x="265" y="586" type="qcurve" smooth="yes"/>
			<point x="200" y="586" type="line"/>
			<point x="211" y="594" type="line"/>
			<point x="211" y="478" type="line"/>
		</contour>
		<contour>
			<point x="48" y="483" type="qcurve" smooth="yes"/>
			<point x="48" y="396.58049"/>
			<point x="173" y="277"/>
			<point x="259" y="277" type="qcurve" smooth="yes"/>
			<point x="346.41429" y="277"/>
			<point x="470" y="397"/>
			<point x="470" y="483" type="qcurve" smooth="yes"/>
			<point x="470" y="570"/>
			<point x="346.41429" y="689"/>
			<point x="259" y="689" type="qcurve" smooth="yes"/>
			<point x="172.59048" y="689"/>
			<point x="48" y="570"/>
		</contour>
		<contour>
			<point x="314" y="367" type="line"/>
			<point x="273" y="471" type="line"/>
			<point x="292" y="479" type="line"/>
			<point x="337" y="367" type="line"/>
		</contour>
	</outline>
</glyph>
<glyph name="macron" format="2">
	<advance width="424"/>
	<unicode hex="00AF"/>
	<anchor x="199" y="515" name="_top"/>
	<outline>
		<contour>
			<point x="347" y="629" type="line"/>
			<point x="77" y="629" type="line"/>
			<point x="77" y="651" type="line"/>
			<point x="347" y="651" type="line"/>
		</contour>
	</outline>
</glyph>
<glyph name="micro" format="2">
	<advance width="549"/>
	<unicode hex="00B5"/>
	<note>
		uni00B5
	</note>
	<outline>
		<contour>
			<point x="447" y="525" type="line"/>
			<point x="469" y="525" type="line"/>
			<point x="469" y="0" type="line"/>
			<point x="449" y="0" type="line"/>
			<point x="442.99951" y="140.49912" type="line"/>
			<point x="462.99915" y="139.99897" type="line"/>
			<point x="432.83544" y="56.5447"/>
			<point x="325.50001" y="-10"/>
			<point x="263" y="-10" type="qcurve"/>
			<point x="192.06736" y="-10"/>
			<point x="89.49308" y="56.01054"/>
			<point x="78" y="149" type="qcurve"/>
			<point x="95" y="103" type="line"/>
			<point x="95" y="-157" type="line"/>
			<point x="73" y="-157" type="line"/>
			<point x="73" y="525" type="line"/>
			<point x="95" y="525" type="line"/>
			<point x="95" y="174" type="line"/>
			<point x="95" y="99"/>
			<point x="176.6" y="12"/>
			<point x="263" y="12" type="qcurve"/>
			<point x="341.40909" y="12"/>
			<point x="447" y="122.05714"/>
			<point x="447" y="192" type="qcurve"/>
		</contour>
	</outline>
</glyph>
<glyph name="paragraph" format="2">
	<advance width="594"/>
	<unicode hex="00B6"/>
	<note>
		paragraph
	</note>
	<outline>
		<contour>
			<point x="482" y="0" type="line"/>
			<point x="460" y="0" type="line"/>
			<point x="460" y="690" type="line"/>
			<point x="471" y="678" type="line"/>
			<point x="331" y="678" type="line"/>
			<point x="342" y="690" type="line"/>
			<point x="342" y="0" type="line"/>
			<point x="320" y="0" type="line"/>
			<point x="320" y="291" type="line"/>
			<point x="331" y="279" type="line"/>
			<point x="265.99939" y="279" type="line" smooth="yes"/>
			<point x="185" y="279"/>
			<point x="77.99939" y="396"/>
			<point x="77.99939" y="486" type="qcurve" smooth="yes"/>
			<point x="77.99939" y="583"/>
			<point x="200.99939" y="700"/>
			<point x="302.99939" y="700" type="qcurve"/>
			<point x="482" y="700" type="line"/>
		</contour>
	</outline>
</glyph>
<glyph name="cedilla" format="2">
	<advance width="267"/>
	<unicode hex="00B8"/>
	<anchor x="141" y="0" name="_bottom"/>
	<outline>
		<contour>
			<point x="81" y="-81" type="line"/>
			<point x="63" y="-78" type="line"/>
			<point x="117" y="0" type="line"/>
			<point x="139" y="0" type="line"/>
		</contour>
		<contour>
			<point x="196" y="-139" type="qcurve"/>
			<point x="196" y="-157"/>
			<point x="178" y="-193"/>
			<point x="156" y="-202" type="qcurve" smooth="yes"/>
			<point x="134" y="-211"/>
			<point x="86" y="-221"/>
			<point x="50" y="-227" type="qcurve"/>
			<point x="46" y="-210" type="line"/>
			<point x="91" y="-203"/>
			<point x="176" y="-179"/>
			<point x="176" y="-138" type="qcurve"/>
			<point x="176" y="-116"/>
			<point x="134" y="-88"/>
			<point x="76" y="-88" type="qcurve"/>
			<point x="63" y="-80" type="line"/>
			<point x="63" y="-78" type="line"/>
			<point x="82" y="-71" type="line"/>
			<point x="144.9981" y="-71.99997"/>
			<point x="196" y="-108"/>
		</contour>
	</outline>
</glyph>
<glyph name="ordmasculine" format="2">
	<advance width="360"/>
	<unicode hex="00BA"/>
	<note>
		ordmasculine
	</note>
	<outline>
		<contour>
			<point x="180" y="731" type="qcurve" smooth="yes"/>
			<point x="240" y="731"/>
			<point x="320" y="633"/>
			<point x="320" y="561" type="qcurve" smooth="yes"/>
			<point x="320" y="489"/>
			<point x="240" y="392"/>
			<point x="180" y="392" type="qcurve" smooth="yes"/>
			<point x="121" y="392"/>
			<point x="40" y="489"/>
			<point x="40" y="561" type="qcurve" smooth="yes"/>
			<point x="40" y="633"/>
			<point x="121" y="731"/>
		</contour>
		<contour>
			<point x="179" y="412" type="qcurve"/>
			<point x="231" y="412"/>
			<point x="300" y="498"/>
			<point x="300" y="561" type="qcurve"/>
			<point x="300" y="625"/>
			<point x="230" y="711"/>
			<point x="179" y="711" type="qcurve"/>
			<point x="128" y="711"/>
			<point x="60" y="625"/>
			<point x="60" y="561" type="qcurve"/>
			<point x="60" y="498"/>
			<point x="128" y="412"/>
		</contour>
	</outline>
</glyph>
<glyph name="AE" format="2">
	<advance width="926"/>
	<unicode hex="00C6"/>
	<anchor x="505" y="700" name="top"/>
	<anchor x="497" y="0" name="bottom"/>
	<note>
		AE
	</note>
	<outline>
		<contour>
			<point x="164" y="216" type="line"/>
			<point x="178" y="238" type="line"/>
			<point x="502" y="238" type="line"/>
			<point x="486" y="220" type="line"/>
			<point x="486" y="691" type="line"/>
			<point x="495" y="691" type="line"/>
			<point x="28" y="0" type="line"/>
			<point x="0" y="0" type="line"/>
			<point x="476" y="700" type="line"/>
			<point x="861" y="700" type="line"/>
			<point x="861" y="678" type="line"/>
			<point x="499" y="678" type="line"/>
			<point x="508" y="687" type="line"/>
			<point x="508" y="357" type="line"/>
			<point x="498" y="372" type="line"/>
			<point x="804" y="372" type="line"/>
			<point x="804" y="350" type="line"/>
			<point x="499" y="350" type="line"/>
			<point x="508" y="367" type="line"/>
			<point x="508" y="9" type="line"/>
			<point x="497" y="22" type="line"/>
			<point x="861" y="22" type="line"/>
			<point x="861" y="0" type="line"/>
			<point x="486" y="0" type="line"/>
			<point x="486" y="228" type="line"/>
			<point x="502" y="216" type="line"/>
		</contour>
	</outline>
</glyph>
<glyph name="germandbls" format="2">
	<advance width="604"/>
	<unicode hex="00DF"/>
	<guideline x="244" y="432" angle="0"/>
	<guideline x="133" y="412" angle="0"/>
	<note>
		germandbls
	</note>
	<outline>
		<contour>
			<point x="138" y="416" type="line"/>
			<point x="40" y="416" type="line"/>
			<point x="40" y="438" type="line"/>
			<point x="138" y="438" type="line"/>
		</contour>
		<contour>
			<point x="148" y="0" type="line"/>
			<point x="126" y="0" type="line"/>
			<point x="126" y="494" type="line" smooth="yes"/>
			<point x="126" y="611"/>
			<point x="227.65" y="728"/>
			<point x="316" y="728" type="qcurve"/>
			<point x="399.19126" y="728"/>
			<point x="489" y="640"/>
			<point x="489" y="577" type="qcurve"/>
			<point x="489" y="507.76398"/>
			<point x="388" y="420"/>
			<point x="318" y="420" type="qcurve"/>
			<point x="318" y="432" type="line"/>
			<point x="457" y="388"/>
			<point x="562" y="258"/>
			<point x="562" y="186" type="qcurve"/>
			<point x="562" y="89"/>
			<point x="462.49215" y="-8.98462"/>
			<point x="364" y="-10" type="qcurve"/>
			<point x="303.07486" y="-9.01734"/>
			<point x="222.02073" y="38.96373"/>
			<point x="194" y="88" type="qcurve"/>
			<point x="214" y="100" type="line"/>
			<point x="242.95178" y="50.08314"/>
			<point x="317.24675" y="12"/>
			<point x="364" y="12" type="qcurve" smooth="yes"/>
			<point x="444.37791" y="12"/>
			<point x="539" y="91"/>
			<point x="539" y="188" type="qcurve"/>
			<point x="539" y="264"/>
			<point x="422.46217" y="380.67788"/>
			<point x="310" y="414" type="qcurve"/>
			<point x="310" y="437" type="line"/>
			<point x="381.00393" y="441.00022"/>
			<point x="466" y="518.66667"/>
			<point x="466" y="577" type="qcurve"/>
			<point x="466" y="631"/>
			<point x="387.41935" y="706"/>
			<point x="321" y="706" type="qcurve"/>
			<point x="237.80874" y="706"/>
			<point x="148" y="601"/>
			<point x="148" y="493" type="qcurve"/>
		</contour>
	</outline>
</glyph>
<glyph name="eth" format="2">
	<advance width="574"/>
	<unicode hex="00F0"/>
	<note>
		eth
	</note>
	<outline>
		<contour>
			<point x="536" y="259" type="qcurve"/>
			<point x="536" y="143"/>
			<point x="396" y="-10"/>
			<point x="288" y="-10" type="qcurve"/>
			<point x="178" y="-10"/>
			<point x="40" y="142"/>
			<point x="40" y="263" type="qcurve"/>
			<point x="40" y="382"/>
			<point x="182" y="527"/>
			<point x="292" y="527" type="qcurve"/>
			<point x="375" y="527"/>
			<point x="504" y="423"/>
			<point x="511" y="369" type="qcurve"/>
			<point x="501" y="371" type="line"/>
			<point x="501" y="492"/>
			<point x="320" y="697"/>
			<point x="201" y="718" type="qcurve"/>
			<point x="211" y="739" type="line"/>
			<point x="361" y="707"/>
			<point x="536" y="465"/>
		</contour>
		<contour>
			<point x="63" y="263" type="qcurve" smooth="yes"/>
			<point x="63" y="153"/>
			<point x="189" y="12"/>
			<point x="288" y="12" type="qcurve"/>
			<point x="387" y="12"/>
			<point x="513" y="153"/>
			<point x="513" y="263" type="qcurve" smooth="yes"/>
			<point x="513" y="370"/>
			<point x="387" y="505"/>
			<point x="288" y="505" type="qcurve"/>
			<point x="189" y="505"/>
			<point x="63" y="370"/>
		</contour>
		<contour>
			<point x="380" y="632" type="line"/>
			<point x="164" y="574" type="line"/>
			<point x="160" y="596" type="line"/>
			<point x="362" y="650" type="line"/>
			<point x="375" y="653" type="line"/>
			<point x="487" y="684" type="line"/>
			<point x="493" y="663" type="line"/>
			<point x="395" y="636" type="line"/>
		</contour>
	</outline>
</glyph>
<glyph name="divide" format="2">
	<advance width="588"/>
	<unicode hex="00F7"/>
	<note>
		divide
	</note>
	<outline>
		<contour>
			<point x="530" y="286" type="line"/>
			<point x="56" y="286" type="line"/>
			<point x="56" y="308" type="line"/>
			<point x="530" y="308" type="line"/>
		</contour>
		<contour>
			<point x="321" y="148" type="qcurve" smooth="yes"/>
			<point x="321" y="137"/>
			<point x="306" y="119"/>
			<point x="293" y="119" type="qcurve" smooth="yes"/>
			<point x="280" y="119"/>
			<point x="265" y="136"/>
			<point x="265" y="148" type="qcurve" smooth="yes"/>
			<point x="265" y="158"/>
			<point x="280" y="177"/>
			<point x="293" y="177" type="qcurve" smooth="yes"/>
			<point x="306" y="177"/>
			<point x="321" y="158"/>
		</contour>
		<contour>
			<point x="321" y="446" type="qcurve" smooth="yes"/>
			<point x="321" y="435"/>
			<point x="306" y="417"/>
			<point x="293" y="417" type="qcurve" smooth="yes"/>
			<point x="280" y="417"/>
			<point x="265" y="434"/>
			<point x="265" y="446" type="qcurve" smooth="yes"/>
			<point x="265" y="456"/>
			<point x="280" y="475"/>
			<point x="293" y="475" type="qcurve" smooth="yes"/>
			<point x="306" y="475"/>
			<point x="321" y="456"/>
		</contour>
	</outline>
</glyph>
<glyph name="oslash" format="2">
	<advance width="615"/>
	<unicode hex="00F8"/>
	<anchor x="305" y="256" name="center"/>
	<anchor x="547" y="10" name="ogonek"/>
	<anchor x="305" y="530" name="top"/>
	<anchor x="319" y="531" name="topright"/>
	<anchor x="305" y="0" name="bottom"/>
	<outline>
		<contour>
			<point x="81" y="-19" type="line"/>
			<point x="65" y="-5" type="line"/>
			<point x="526" y="538" type="line"/>
			<point x="543" y="523" type="line"/>
		</contour>
		<contour>
			<point x="308" y="529" type="qcurve"/>
			<point x="427" y="529"/>
			<point x="575" y="380"/>
			<point x="575" y="263" type="qcurve"/>
			<point x="575" y="144"/>
			<point x="427" y="-10"/>
			<point x="308" y="-10" type="qcurve"/>
			<point x="190" y="-10"/>
			<point x="40" y="144"/>
			<point x="40" y="263" type="qcurve"/>
			<point x="40" y="380"/>
			<point x="190" y="529"/>
		</contour>
		<contour>
			<point x="308" y="12" type="qcurve"/>
			<point x="414" y="12"/>
			<point x="552" y="153"/>
			<point x="553" y="263" type="qcurve" smooth="yes"/>
			<point x="552" y="369"/>
			<point x="414" y="507"/>
			<point x="308" y="507" type="qcurve"/>
			<point x="201" y="507"/>
			<point x="63" y="370"/>
			<point x="62" y="263" type="qcurve" smooth="yes"/>
			<point x="63" y="153"/>
			<point x="201" y="12"/>
		</contour>
	</outline>
</glyph>
<glyph name="Hbar" format="2">
	<advance width="731"/>
	<unicode hex="0126"/>
	<anchor x="424" y="0" name="bottom"/>
	<anchor x="424" y="700" name="top"/>
	<anchor x="84" y="700" name="topleft"/>
	<anchor x="424" y="350" name="center"/>
	<outline>
		<contour>
			<point x="110" y="541" type="line"/>
			<point x="24" y="541" type="line"/>
			<point x="24" y="562" type="line"/>
			<point x="110" y="562" type="line"/>
			<point x="127" y="562" type="line"/>
			<point x="606" y="562" type="line"/>
			<point x="621" y="562" type="line"/>
			<point x="706" y="562" type="line"/>
			<point x="706" y="541" type="line"/>
			<point x="621" y="541" type="line"/>
			<point x="606" y="541" type="line"/>
			<point x="127" y="541" type="line"/>
		</contour>
		<contour>
			<point x="110" y="700" type="line"/>
			<point x="132" y="700" type="line"/>
			<point x="132" y="0" type="line"/>
			<point x="110" y="0" type="line"/>
		</contour>
		<contour>
			<point x="599" y="700" type="line"/>
			<point x="621" y="700" type="line"/>
			<point x="621" y="0" type="line"/>
			<point x="599" y="0" type="line"/>
		</contour>
		<contour>
			<point x="121" y="338" type="line"/>
			<point x="121" y="360" type="line"/>
			<point x="610" y="360" type="line"/>
			<point x="610" y="338" type="line"/>
		</contour>
	</outline>
</glyph>
<glyph name="idotless" format="2">
	<advance width="162"/>
	<unicode hex="0131"/>
	<anchor x="98" y="10" name="ogonek"/>
	<anchor x="82" y="0" name="bottom"/>
	<anchor x="82" y="525" name="top"/>
	<note>
		dotlessi
	</note>
	<outline>
		<contour>
			<point x="92" y="525" type="line"/>
			<point x="92" y="0" type="line"/>
			<point x="70" y="0" type="line"/>
			<point x="70" y="525" type="line"/>
		</contour>
	</outline>
</glyph>
<glyph name="lslash" format="2">
	<advance width="292"/>
	<unicode hex="0142"/>
	<anchor x="120" y="0" name="bottom"/>
	<anchor x="121" y="740" name="top"/>
	<anchor x="227" y="580" name="topright"/>
	<anchor x="120" y="289" name="center"/>
	<outline>
		<contour>
			<point x="157" y="0" type="line"/>
			<point x="135" y="0" type="line"/>
			<point x="135" y="740" type="line"/>
			<point x="157" y="740" type="line"/>
		</contour>
		<contour>
			<point x="18" y="283" type="line"/>
			<point x="10" y="304" type="line"/>
			<point x="274" y="425" type="line"/>
			<point x="282" y="404" type="line"/>
		</contour>
	</outline>
</glyph>
<glyph name="Schwa" format="2">
	<advance width="795"/>
	<unicode hex="018F"/>
	<outline>
		<contour>
			<point x="740" y="344" type="qcurve"/>
			<point x="740" y="189"/>
			<point x="542" y="-10"/>
			<point x="395" y="-10" type="qcurve"/>
			<point x="245" y="-10"/>
			<point x="52" y="199"/>
			<point x="55" y="353" type="qcurve"/>
			<point x="55" y="365" type="line"/>
			<point x="728" y="365" type="line"/>
			<point x="728" y="343" type="line"/>
			<point x="77" y="343" type="line"/>
			<point x="77" y="206"/>
			<point x="251" y="12"/>
			<point x="396" y="12" type="qcurve"/>
			<point x="533" y="12"/>
			<point x="717" y="202"/>
			<point x="717" y="348" type="qcurve"/>
			<point x="717" y="494"/>
			<point x="518" y="688"/>
			<point x="370" y="688" type="qcurve"/>
			<point x="305" y="688"/>
			<point x="186" y="634"/>
			<point x="143" y="593" type="qcurve"/>
			<point x="128" y="609" type="line"/>
			<point x="172" y="653"/>
			<point x="304" y="710"/>
			<point x="372" y="710" type="qcurve"/>
			<point x="529" y="710"/>
			<point x="740" y="501"/>
		</contour>
	</outline>
</glyph>
<glyph name="florin" format="2">
	<advance width="519"/>
	<unicode hex="0192"/>
	<note>
		florin
	</note>
	<outline>
		<contour>
			<point x="96" y="-30" type="qcurve" smooth="yes"/>
			<point x="70" y="-30"/>
			<point x="23" y="-12"/>
			<point x="4" y="2" type="qcurve"/>
			<point x="14" y="22" type="line"/>
			<point x="40" y="4"/>
			<point x="75.58025" y="-8"/>
			<point x="100" y="-8" type="qcurve"/>
			<point x="146" y="-8"/>
			<point x="187.07071" y="61.00053"/>
			<point x="194" y="100" type="qcurve" smooth="yes"/>
			<point x="272" y="539" type="line" smooth="yes"/>
			<point x="286" y="616"/>
			<point x="349" y="693"/>
			<point x="407" y="693" type="qcurve"/>
			<point x="438" y="693"/>
			<point x="491" y="675"/>
			<point x="516" y="658" type="qcurve"/>
			<point x="505" y="638" type="line"/>
			<point x="480" y="655"/>
			<point x="430" y="671"/>
			<point x="402" y="671" type="qcurve" smooth="yes"/>
			<point x="359" y="671"/>
			<point x="306" y="601"/>
			<point x="293" y="528" type="qcurve" smooth="yes"/>
			<point x="221" y="120" type="line" smooth="yes"/>
			<point x="207.6035" y="44.08648"/>
			<point x="148.16535" y="-30"/>
		</contour>
		<contour>
			<point x="449" y="422" type="line"/>
			<point x="80" y="422" type="line"/>
			<point x="80" y="444" type="line"/>
			<point x="449" y="444" type="line"/>
		</contour>
	</outline>
</glyph>
<glyph name="ringhalfleft" format="2">
	<advance width="254"/>
	<unicode hex="02BF"/>
	<outline>
		<contour>
			<point x="170" y="565" type="qcurve"/>
			<point x="170" y="543" type="line"/>
			<point x="129" y="543"/>
			<point x="67" y="602"/>
			<point x="67" y="641" type="qcurve"/>
			<point x="67" y="681"/>
			<point x="129" y="740"/>
			<point x="170" y="740" type="qcurve"/>
			<point x="170" y="719" type="line"/>
			<point x="137" y="719"/>
			<point x="89" y="676"/>
			<point x="89" y="641" type="qcurve"/>
			<point x="89" y="610"/>
			<point x="137" y="565"/>
		</contour>
	</outline>
</glyph>
<glyph name="circumflex" format="2">
	<advance width="362"/>
	<unicode hex="02C6"/>
	<guideline x="181" y="0" angle="270"/>
	<outline>
		<contour>
			<point x="290" y="625" type="line"/>
			<point x="174" y="717" type="line"/>
			<point x="189" y="717" type="line"/>
			<point x="72" y="625" type="line"/>
			<point x="60" y="638" type="line"/>
			<point x="167" y="730" type="line"/>
			<point x="195" y="730" type="line"/>
			<point x="302" y="638" type="line"/>
		</contour>
	</outline>
</glyph>
<glyph name="verticallinemod" format="2">
	<advance width="231"/>
	<unicode hex="02C8"/>
	<outline>
		<contour>
			<point x="128.00073" y="712" type="line"/>
			<point x="128.00073" y="368" type="line"/>
			<point x="104.49924" y="368" type="line"/>
			<point x="104.49924" y="712" type="line"/>
		</contour>
	</outline>
</glyph>
<glyph name="firsttonechinese" format="2">
	<advance width="424"/>
	<unicode hex="02C9"/>
	<outline>
		<contour>
			<point x="347" y="629" type="line"/>
			<point x="77" y="629" type="line"/>
			<point x="77" y="651" type="line"/>
			<point x="347" y="651" type="line"/>
		</contour>
	</outline>
</glyph>
<glyph name="caroncomb" format="2">
	<advance width="362"/>
	<unicode hex="030C"/>
	<anchor x="180" y="765" name="top"/>
	<anchor x="180" y="520" name="_top"/>
	<outline>
		<contour>
			<point x="189" y="649" type="line"/>
			<point x="174" y="649" type="line"/>
			<point x="290" y="741" type="line"/>
			<point x="302" y="728" type="line"/>
			<point x="195" y="636" type="line"/>
			<point x="167" y="636" type="line"/>
			<point x="60" y="728" type="line"/>
			<point x="72" y="741" type="line"/>
		</contour>
	</outline>
</glyph>
<glyph name="horncomb" format="2">
	<advance width="0"/>
	<unicode hex="031B"/>
	<anchor x="0" y="510" name="_topright"/>
	<anchor x="0" y="510" name="topright"/>
	<outline>
		<contour>
			<point x="-37" y="504" type="qcurve"/>
			<point x="-37" y="525" type="line"/>
			<point x="12" y="525"/>
			<point x="59" y="574"/>
			<point x="59" y="624" type="qcurve"/>
			<point x="81" y="624" type="line"/>
			<point x="81" y="568.53782"/>
			<point x="19" y="504"/>
		</contour>
	</outline>
</glyph>
<glyph name="dieresisbelowcomb" format="2">
	<advance width="0"/>
	<unicode hex="0324"/>
	<anchor x="198" y="0" name="_bottom"/>
	<anchor x="198" y="-150" name="bottom"/>
	<outline>
		<contour>
			<point x="285.00012" y="-150" type="qcurve"/>
			<point x="264" y="-150"/>
			<point x="244.99988" y="-132.49991"/>
			<point x="244.99988" y="-114.49979" type="qcurve"/>
			<point x="244.99988" y="-103.9997" type="line" smooth="yes"/>
			<point x="244.99988" y="-85.4996"/>
			<point x="265" y="-68.49948"/>
			<point x="286.00012" y="-68.49948" type="qcurve"/>
			<point x="306.50027" y="-68.49948"/>
			<point x="326.5004" y="-84.4996"/>
			<point x="326.5004" y="-103.9997" type="qcurve"/>
			<point x="326.5004" y="-114.49979" type="line" smooth="yes"/>
			<point x="326.5004" y="-133.49991"/>
			<point x="307.50027" y="-150"/>
		</contour>
		<contour>
			<point x="103.49997" y="-150" type="qcurve"/>
			<point x="82.49985" y="-150"/>
			<point x="63.49973" y="-132.49991"/>
			<point x="63.49973" y="-114.49979" type="qcurve"/>
			<point x="63.49973" y="-103.9997" type="line" smooth="yes"/>
			<point x="63.49973" y="-85.4996"/>
			<point x="83.49985" y="-68.49948"/>
			<point x="103.49997" y="-68.49948" type="qcurve"/>
			<point x="125.00012" y="-68.49948"/>
			<point x="145.00024" y="-84.99957"/>
			<point x="145.00024" y="-103.9997" type="qcurve"/>
			<point x="145.00024" y="-114.49979" type="line" smooth="yes"/>
			<point x="145.00024" y="-133.49991"/>
			<point x="126.00012" y="-150"/>
		</contour>
	</outline>
</glyph>
<glyph name="commaaccentcomb" format="2">
	<advance width="0"/>
	<unicode hex="0326"/>
	<anchor x="104" y="0" name="_bottom"/>
	<anchor x="103" y="-276" name="bottom"/>
	<anchor x="113" y="-276" name="_top"/>
	<outline>
		<contour>
			<point x="87" y="-204" type="qcurve"/>
			<point x="74" y="-191" type="line"/>
			<point x="96" y="-172"/>
			<point x="108" y="-153"/>
			<point x="108" y="-144" type="qcurve"/>
			<point x="108" y="-136"/>
			<point x="102" y="-126"/>
			<point x="91" y="-121" type="qcurve" smooth="yes"/>
			<point x="81" y="-116"/>
			<point x="71" y="-102"/>
			<point x="71" y="-92" type="qcurve"/>
			<point x="71" y="-83"/>
			<point x="85" y="-68"/>
			<point x="98" y="-68" type="qcurve"/>
			<point x="115" y="-68"/>
			<point x="134" y="-93"/>
			<point x="134" y="-114" type="qcurve"/>
			<point x="134" y="-140"/>
			<point x="116" y="-181"/>
		</contour>
	</outline>
</glyph>
<glyph name="ogonekcomb" format="2">
	<advance width="295"/>
	<unicode hex="0328"/>
	<anchor x="248" y="10" name="_ogonek"/>
	<outline>
		<contour>
			<point x="151" y="-230" type="qcurve" smooth="yes"/>
			<point x="109" y="-230"/>
			<point x="56" y="-173"/>
			<point x="56" y="-130" type="qcurve" smooth="yes"/>
			<point x="56" y="-70"/>
			<point x="149" y="8"/>
			<point x="206" y="18" type="qcurve"/>
			<point x="211" y="8" type="line"/>
			<point x="211" y="0" type="line"/>
			<point x="155" y="-10"/>
			<point x="78" y="-77"/>
			<point x="78" y="-130" type="qcurve" smooth="yes"/>
			<point x="78" y="-163"/>
			<point x="120" y="-208"/>
			<point x="151" y="-208" type="qcurve" smooth="yes"/>
			<point x="175" y="-208"/>
			<point x="210" y="-183"/>
			<point x="221" y="-163" type="qcurve"/>
			<point x="236" y="-176" type="line"/>
			<point x="224" y="-200"/>
			<point x="179" y="-230"/>
		</contour>
	</outline>
</glyph>
<glyph name="macronbelowcomb" format="2">
	<advance width="0"/>
	<unicode hex="0331"/>
	<anchor x="213" y="0" name="_bottom"/>
	<anchor x="213" y="-164" name="bottom"/>
	<outline>
		<contour>
			<point x="345" y="-106" type="line"/>
			<point x="74" y="-106" type="line"/>
			<point x="74" y="-84" type="line"/>
			<point x="345" y="-84" type="line"/>
		</contour>
	</outline>
</glyph>
<glyph name="strokeshortcomb" format="2">
	<advance width="0"/>
	<unicode hex="0335"/>
	<anchor x="177" y="294" name="_center"/>
	<outline>
		<contour>
			<point x="318" y="288" type="line"/>
			<point x="50" y="288" type="line"/>
			<point x="50" y="309" type="line"/>
			<point x="318" y="309" type="line"/>
		</contour>
	</outline>
</glyph>
<glyph name="Germandbls" format="2">
	<advance width="725"/>
	<unicode hex="1E9E"/>
	<outline>
		<contour>
			<point x="602" y="609" type="line"/>
			<point x="502" y="596"/>
			<point x="390" y="532"/>
			<point x="390" y="486" type="qcurve"/>
			<point x="390" y="453"/>
			<point x="438" y="408"/>
			<point x="489" y="384" type="qcurve" smooth="yes"/>
			<point x="512" y="373"/>
			<point x="561" y="349"/>
			<point x="577" y="340" type="qcurve" smooth="yes"/>
			<point x="632" y="309"/>
			<point x="663" y="230"/>
			<point x="663" y="188" type="qcurve"/>
			<point x="663" y="90"/>
			<point x="539" y="-10"/>
			<point x="436" y="-10" type="qcurve" smooth="yes"/>
			<point x="378" y="-10"/>
			<point x="272" y="38"/>
			<point x="241" y="78" type="qcurve"/>
			<point x="258" y="93" type="line"/>
			<point x="294" y="52"/>
			<point x="388" y="12"/>
			<point x="437" y="12" type="qcurve"/>
			<point x="530" y="12"/>
			<point x="640" y="103"/>
			<point x="640" y="183" type="qcurve"/>
			<point x="640" y="235"/>
			<point x="599" y="305"/>
			<point x="557" y="326" type="qcurve" smooth="yes"/>
			<point x="533" y="338"/>
			<point x="480" y="364"/>
			<point x="450" y="378" type="qcurve" smooth="yes"/>
			<point x="405" y="400"/>
			<point x="368" y="450"/>
			<point x="368" y="485" type="qcurve"/>
			<point x="368" y="544"/>
			<point x="490.99985" y="613"/>
			<point x="586" y="625" type="qcurve"/>
			<point x="586" y="620" type="line"/>
			<point x="552.91618" y="645.5218"/>
			<point x="451" y="688"/>
			<point x="381" y="688" type="qcurve"/>
			<point x="246.34351" y="688"/>
			<point x="129" y="553"/>
			<point x="129" y="391" type="qcurve"/>
			<point x="129" y="0" type="line"/>
			<point x="106" y="0" type="line"/>
			<point x="106" y="402" type="line"/>
			<point x="106" y="557"/>
			<point x="232.41958" y="710"/>
			<point x="382" y="710" type="qcurve"/>
			<point x="455" y="710"/>
			<point x="561.86737" y="667.36605"/>
			<point x="600" y="634" type="qcurve"/>
		</contour>
	</outline>
</glyph>
<glyph name="endash" format="2">
	<advance width="514"/>
	<unicode hex="2013"/>
	<note>
		endash
	</note>
	<outline>
		<contour>
			<point x="461" y="283" type="line"/>
			<point x="53" y="283" type="line"/>
			<point x="53" y="305" type="line"/>
			<point x="461" y="305" type="line"/>
		</contour>
	</outline>
</glyph>
<glyph name="emdash" format="2">
	<advance width="868"/>
	<unicode hex="2014"/>
	<note>
		emdash
	</note>
	<outline>
		<contour>
			<point x="815" y="284" type="line"/>
			<point x="53" y="284" type="line"/>
			<point x="53" y="306" type="line"/>
			<point x="815" y="306" type="line"/>
		</contour>
	</outline>
</glyph>
<glyph name="fraction" format="2">
	<advance width="606"/>
	<unicode hex="2044"/>
	<note>
		fraction
	</note>
	<outline>
		<contour>
			<point x="79" y="0" type="line"/>
			<point x="52" y="0" type="line"/>
			<point x="311" y="388" type="line"/>
			<point x="520" y="700" type="line"/>
			<point x="547" y="700" type="line"/>
			<point x="331" y="377" type="line"/>
		</contour>
	</outline>
</glyph>
<glyph name="lira" format="2">
	<advance width="610"/>
	<unicode hex="20A4"/>
	<outline>
		<contour>
			<point x="230" y="202" type="qcurve"/>
			<point x="230" y="161"/>
			<point x="199" y="75"/>
			<point x="157" y="47" type="qcurve"/>
			<point x="141" y="62" type="line"/>
			<point x="171" y="74"/>
			<point x="207" y="153"/>
			<point x="207" y="201" type="qcurve"/>
			<point x="207" y="229"/>
			<point x="193" y="292"/>
			<point x="173" y="352" type="qcurve" smooth="yes"/>
			<point x="153" y="414"/>
			<point x="144" y="475"/>
			<point x="144" y="502" type="qcurve"/>
			<point x="144" y="588"/>
			<point x="250" y="695"/>
			<point x="340" y="695" type="qcurve"/>
			<point x="400" y="695"/>
			<point x="480" y="652"/>
			<point x="509" y="611" type="qcurve"/>
			<point x="491" y="597" type="line"/>
			<point x="454" y="643"/>
			<point x="384" y="673"/>
			<point x="340" y="673" type="qcurve"/>
			<point x="264" y="673"/>
			<point x="167" y="576"/>
			<point x="167" y="501" type="qcurve"/>
			<point x="167" y="477"/>
			<point x="179" y="416"/>
			<point x="200" y="353" type="qcurve" smooth="yes"/>
			<point x="222" y="288"/>
			<point x="230" y="225"/>
		</contour>
		<contour>
			<point x="447" y="-5" type="qcurve"/>
			<point x="428" y="-5"/>
			<point x="372" y="3"/>
			<point x="313" y="20" type="qcurve" smooth="yes"/>
			<point x="260" y="36"/>
			<point x="214" y="47"/>
			<point x="199" y="47" type="qcurve"/>
			<point x="171" y="47"/>
			<point x="106" y="28"/>
			<point x="73" y="13" type="qcurve"/>
			<point x="62" y="32" type="line"/>
			<point x="93" y="46"/>
			<point x="159" y="69"/>
			<point x="199" y="69" type="qcurve"/>
			<point x="223" y="69"/>
			<point x="280" y="56"/>
			<point x="334" y="39" type="qcurve" smooth="yes"/>
			<point x="383" y="24"/>
			<point x="429" y="17"/>
			<point x="447" y="17" type="qcurve"/>
			<point x="471" y="17"/>
			<point x="522" y="33"/>
			<point x="548" y="49" type="qcurve"/>
			<point x="562" y="31" type="line"/>
			<point x="535" y="15"/>
			<point x="478" y="-5"/>
		</contour>
		<contour>
			<point x="437" y="236" type="line"/>
			<point x="59" y="236" type="line"/>
			<point x="59" y="258" type="line"/>
			<point x="437" y="258" type="line"/>
		</contour>
		<contour>
			<point x="437" y="353" type="line"/>
			<point x="59" y="353" type="line"/>
			<point x="59" y="375" type="line"/>
			<point x="437" y="375" type="line"/>
		</contour>
	</outline>
</glyph>
<glyph name="dong" format="2">
	<advance width="491"/>
	<unicode hex="20AB"/>
	<guideline x="389" y="147" angle="270"/>
	<guideline x="45" y="201" angle="270"/>
	<outline>
		<contour>
			<point x="212" y="146" type="qcurve"/>
			<point x="143" y="146"/>
			<point x="40" y="242"/>
			<point x="40" y="321" type="qcurve"/>
			<point x="40" y="395"/>
			<point x="144" y="497"/>
			<point x="217" y="497" type="qcurve"/>
			<point x="273" y="497"/>
			<point x="365" y="431"/>
			<point x="374" y="384" type="qcurve"/>
			<point x="367" y="390" type="line"/>
			<point x="367" y="700" type="line"/>
			<point x="389" y="700" type="line"/>
			<point x="389" y="156" type="line"/>
			<point x="367" y="156" type="line"/>
			<point x="367" y="284" type="line"/>
			<point x="372" y="266" type="line"/>
			<point x="372" y="225.65517"/>
			<point x="276" y="146"/>
		</contour>
		<contour>
			<point x="62" y="321" type="qcurve"/>
			<point x="62" y="256"/>
			<point x="148.67763" y="168"/>
			<point x="217" y="168" type="qcurve"/>
			<point x="280" y="168"/>
			<point x="368.9986" y="259.48111"/>
			<point x="368.9986" y="321" type="qcurve"/>
			<point x="368.9986" y="384.63152"/>
			<point x="284" y="475"/>
			<point x="219" y="475" type="qcurve"/>
			<point x="149.67532" y="475"/>
			<point x="62" y="388"/>
		</contour>
		<contour>
			<point x="409" y="0" type="line"/>
			<point x="45" y="0" type="line"/>
			<point x="45" y="22" type="line"/>
			<point x="409" y="22" type="line"/>
		</contour>
		<contour>
			<point x="466" y="592" type="line"/>
			<point x="203" y="592" type="line"/>
			<point x="203" y="614" type="line"/>
			<point x="466" y="614" type="line"/>
		</contour>
	</outline>
</glyph>
<glyph name="kip" format="2">
	<advance width="759"/>
	<unicode hex="20AD"/>
	<guideline x="26" y="406" angle="0"/>
	<anchor x="375" y="700" name="top"/>
	<anchor x="363" y="0" name="bottom"/>
	<outline>
		<contour>
			<point x="332" y="400" type="line"/>
			<point x="332" y="422" type="line"/>
			<point x="599" y="422" type="line"/>
			<point x="599" y="400" type="line"/>
		</contour>
		<contour>
			<point x="150" y="422" type="line"/>
			<point x="150" y="400" type="line"/>
			<point x="50" y="400" type="line"/>
			<point x="50" y="422" type="line"/>
		</contour>
		<contour>
			<point x="140" y="0" type="line"/>
			<point x="140" y="700" type="line"/>
			<point x="162" y="700" type="line"/>
			<point x="162" y="0" type="line"/>
		</contour>
		<contour>
			<point x="150" y="234" type="line"/>
			<point x="150" y="265" type="line"/>
			<point x="596" y="700" type="line"/>
			<point x="628" y="700" type="line"/>
		</contour>
		<contour>
			<point x="617" y="0" type="line"/>
			<point x="312" y="404" type="line"/>
			<point x="329" y="420" type="line"/>
			<point x="646" y="0" type="line"/>
		</contour>
	</outline>
</glyph>
<glyph name="peso" format="2">
	<advance width="775"/>
	<unicode hex="20B1"/>
	<anchor x="401" y="700" name="top"/>
	<anchor x="401" y="0" name="bottom"/>
	<outline>
		<contour>
			<point x="193" y="700" type="line"/>
			<point x="444" y="700" type="line" smooth="yes"/>
			<point x="527" y="700"/>
			<point x="628" y="593"/>
			<point x="628" y="507" type="qcurve" smooth="yes"/>
			<point x="628" y="411"/>
			<point x="527" y="291"/>
			<point x="444" y="291" type="qcurve"/>
			<point x="201" y="291" type="line"/>
			<point x="215" y="300" type="line"/>
			<point x="215" y="0" type="line"/>
			<point x="193" y="0" type="line"/>
		</contour>
		<contour>
			<point x="200" y="313" type="line"/>
			<point x="450" y="313" type="line" smooth="yes"/>
			<point x="520" y="313"/>
			<point x="605" y="421"/>
			<point x="605" y="507" type="qcurve" smooth="yes"/>
			<point x="605" y="582"/>
			<point x="520" y="678"/>
			<point x="450" y="678" type="qcurve"/>
			<point x="202" y="678" type="line"/>
			<point x="215" y="690" type="line"/>
			<point x="215" y="305" type="line"/>
		</contour>
		<contour>
			<point x="387" y="438" type="line"/>
			<point x="600" y="438" type="line"/>
			<point x="623" y="438" type="line"/>
			<point x="720" y="438" type="line"/>
			<point x="720" y="417" type="line"/>
			<point x="617" y="417" type="line"/>
			<point x="594" y="417" type="line"/>
			<point x="387" y="417" type="line"/>
		</contour>
		<contour>
			<point x="193" y="417" type="line"/>
			<point x="93" y="417" type="line"/>
			<point x="93" y="438" type="line"/>
			<point x="193" y="438" type="line"/>
			<point x="215" y="438" type="line"/>
			<point x="387" y="438" type="line"/>
			<point x="387" y="417" type="line"/>
			<point x="215" y="417" type="line"/>
		</contour>
		<contour>
			<point x="386" y="569" type="line"/>
			<point x="600" y="569" type="line"/>
			<point x="620" y="569" type="line"/>
			<point x="720" y="569" type="line"/>
			<point x="720" y="548" type="line"/>
			<point x="617" y="548" type="line"/>
			<point x="594" y="548" type="line"/>
			<point x="386" y="548" type="line"/>
		</contour>
		<contour>
			<point x="193" y="548" type="line"/>
			<point x="93" y="548" type="line"/>
			<point x="93" y="569" type="line"/>
			<point x="193" y="569" type="line"/>
			<point x="215" y="569" type="line"/>
			<point x="386" y="569" type="line"/>
			<point x="386" y="548" type="line"/>
			<point x="215" y="548" type="line"/>
		</contour>
	</outline>
</glyph>
<glyph name="guarani" format="2">
	<advance width="766"/>
	<unicode hex="20B2"/>
	<anchor x="400" y="700" name="top"/>
	<anchor x="413" y="0" name="bottom"/>
	<outline>
		<contour>
			<point x="51" y="346" type="qcurve"/>
			<point x="51" y="505"/>
			<point x="244" y="710"/>
			<point x="395" y="710" type="qcurve"/>
			<point x="480" y="710"/>
			<point x="616" y="639"/>
			<point x="664" y="580" type="qcurve"/>
			<point x="647" y="564" type="line"/>
			<point x="604" y="621"/>
			<point x="474" y="688"/>
			<point x="395" y="688" type="qcurve" smooth="yes"/>
			<point x="256" y="688"/>
			<point x="74" y="494"/>
			<point x="74" y="346" type="qcurve"/>
			<point x="74" y="200"/>
			<point x="257" y="12"/>
			<point x="396" y="12" type="qcurve"/>
			<point x="540" y="12"/>
			<point x="695" y="184"/>
			<point x="695" y="322" type="qcurve"/>
			<point x="695" y="341" type="line"/>
			<point x="701" y="336" type="line"/>
			<point x="405" y="336" type="line"/>
			<point x="405" y="358" type="line"/>
			<point x="718" y="358" type="line"/>
			<point x="718" y="352"/>
			<point x="718" y="345"/>
			<point x="718" y="339" type="qcurve"/>
			<point x="718" y="168"/>
			<point x="545" y="-10"/>
			<point x="396" y="-10" type="qcurve"/>
			<point x="245" y="-10"/>
			<point x="51" y="189"/>
		</contour>
		<contour>
			<point x="405" y="797" type="line"/>
			<point x="405" y="-136" type="line"/>
			<point x="383" y="-136" type="line"/>
			<point x="383" y="797" type="line"/>
		</contour>
	</outline>
</glyph>
<glyph name="rupeeIndian" format="2">
	<advance width="571"/>
	<unicode hex="20B9"/>
	<outline>
		<contour>
			<point x="288" y="678" type="line"/>
			<point x="282" y="692" type="line"/>
			<point x="353" y="669"/>
			<point x="409" y="566"/>
			<point x="409" y="507" type="qcurve"/>
			<point x="409" y="421"/>
			<point x="308" y="314"/>
			<point x="225" y="314" type="qcurve" smooth="yes"/>
			<point x="126" y="314" type="line"/>
			<point x="126" y="326" type="line"/>
			<point x="126" y="336" type="line"/>
			<point x="231" y="336" type="line"/>
			<point x="301" y="336"/>
			<point x="386" y="432"/>
			<point x="386" y="507" type="qcurve"/>
			<point x="386" y="582"/>
			<point x="301" y="678"/>
			<point x="231" y="678" type="qcurve"/>
			<point x="80" y="678" type="line"/>
			<point x="80" y="700" type="line"/>
			<point x="509" y="700" type="line"/>
			<point x="509" y="678" type="line"/>
		</contour>
		<contour>
			<point x="106" y="336" type="line"/>
			<point x="133" y="336" type="line"/>
			<point x="396" y="0" type="line"/>
			<point x="369" y="0" type="line"/>
		</contour>
		<contour>
			<point x="509" y="496" type="line"/>
			<point x="241" y="496" type="line"/>
			<point x="241" y="518" type="line"/>
			<point x="509" y="518" type="line"/>
		</contour>
	</outline>
</glyph>
<glyph name="manat" format="2">
	<advance width="744"/>
	<unicode hex="20BC"/>
	<anchor x="97" y="684" name="ogonek"/>
	<anchor x="380" y="-6" name="top"/>
	<anchor x="238" y="-14" name="topright"/>
	<anchor x="380" y="694" name="bottom"/>
	<outline>
		<contour>
			<point x="379" y="801" type="line"/>
			<point x="379" y="254" type="line"/>
			<point x="357" y="254" type="line"/>
			<point x="357" y="801" type="line"/>
		</contour>
		<contour>
			<point x="132" y="0" type="line"/>
			<point x="110" y="0" type="line"/>
			<point x="110" y="431" type="line"/>
			<point x="111" y="551"/>
			<point x="255" y="706"/>
			<point x="368" y="706" type="qcurve"/>
			<point x="484" y="706"/>
			<point x="634" y="551"/>
			<point x="634" y="431" type="qcurve"/>
			<point x="634" y="0" type="line"/>
			<point x="612" y="0" type="line"/>
			<point x="612" y="422" type="line"/>
			<point x="612" y="537"/>
			<point x="476" y="684"/>
			<point x="368" y="684" type="qcurve"/>
			<point x="263" y="684"/>
			<point x="132" y="537"/>
			<point x="132" y="422" type="qcurve"/>
		</contour>
	</outline>
</glyph>
<glyph name="literSign" format="2">
	<advance width="539"/>
	<unicode hex="2113"/>
	<note>
		uni2113
	</note>
	<outline>
		<contour>
			<point x="306" y="12" type="qcurve"/>
			<point x="344" y="12"/>
			<point x="407" y="39"/>
			<point x="431" y="63" type="qcurve"/>
			<point x="442" y="44" type="line"/>
			<point x="412" y="15"/>
			<point x="341" y="-10"/>
			<point x="310" y="-10" type="qcurve"/>
			<point x="230" y="-10"/>
			<point x="132" y="135"/>
			<point x="132" y="247" type="qcurve" smooth="yes"/>
			<point x="132" y="321.1457"/>
			<point x="156.64801" y="488.43074"/>
			<point x="183" y="558" type="qcurve" smooth="yes"/>
			<point x="216.46887" y="646.93158"/>
			<point x="321.59155" y="748"/>
			<point x="388" y="748" type="qcurve"/>
			<point x="449" y="748"/>
			<point x="519" y="673"/>
			<point x="519" y="608" type="qcurve" smooth="yes"/>
			<point x="519" y="536"/>
			<point x="433" y="357"/>
			<point x="341" y="264" type="qcurve"/>
			<point x="298" y="218"/>
			<point x="147" y="109"/>
			<point x="57" y="67" type="qcurve"/>
			<point x="46" y="87" type="line"/>
			<point x="133.93275" y="128.2524"/>
			<point x="284.89922" y="236.61049"/>
			<point x="343" y="298" type="qcurve" smooth="yes"/>
			<point x="403.83172" y="362.46347"/>
			<point x="496" y="530"/>
			<point x="496" y="612" type="qcurve" smooth="yes"/>
			<point x="496" y="656"/>
			<point x="441" y="726"/>
			<point x="387" y="726" type="qcurve"/>
			<point x="323.65327" y="726"/>
			<point x="222.82865" y="607.31861"/>
			<point x="196" y="523" type="qcurve" smooth="yes"/>
			<point x="172.72041" y="449.98675"/>
			<point x="155" y="294.6875"/>
			<point x="155" y="242" type="qcurve" smooth="yes"/>
			<point x="155" y="154"/>
			<point x="237" y="12"/>
		</contour>
	</outline>
</glyph>
<glyph name="Ohm" format="2">
	<advance width="675"/>
	<unicode hex="2126"/>
	<guideline x="209" y="217" angle="0"/>
	<note>
		Ohm
	</note>
	<outline>
		<contour>
			<point x="25" y="404" type="qcurve"/>
			<point x="25" y="533"/>
			<point x="204" y="710"/>
			<point x="338" y="710" type="qcurve"/>
			<point x="472" y="710"/>
			<point x="651" y="533"/>
			<point x="651" y="404" type="qcurve"/>
			<point x="651" y="297"/>
			<point x="528" y="92"/>
			<point x="426" y="10" type="qcurve"/>
			<point x="425" y="22" type="line"/>
			<point x="637" y="22" type="line"/>
			<point x="637" y="0" type="line"/>
			<point x="405" y="0" type="line"/>
			<point x="405" y="22" type="line"/>
			<point x="439.43426" y="44.28099"/>
			<point x="536.83901" y="149.71282"/>
			<point x="574" y="216" type="qcurve" smooth="yes"/>
			<point x="598.69599" y="260.45278"/>
			<point x="628" y="357"/>
			<point x="628" y="403" type="qcurve"/>
			<point x="628" y="512"/>
			<point x="471" y="688"/>
			<point x="338" y="688" type="qcurve"/>
			<point x="205" y="688"/>
			<point x="48" y="512"/>
			<point x="48" y="403" type="qcurve"/>
			<point x="48" y="358"/>
			<point x="77.30957" y="261.44277"/>
			<point x="102" y="217" type="qcurve" smooth="yes"/>
			<point x="139.16002" y="150.71456"/>
			<point x="236.56676" y="44.28033"/>
			<point x="271" y="22" type="qcurve"/>
			<point x="271" y="0" type="line"/>
			<point x="39" y="0" type="line"/>
			<point x="39" y="22" type="line"/>
			<point x="251" y="22" type="line"/>
			<point x="250" y="10" type="line"/>
			<point x="148" y="92"/>
			<point x="25" y="297"/>
		</contour>
	</outline>
</glyph>
<glyph name="product" format="2">
	<advance width="708"/>
	<unicode hex="220F"/>
	<note>
		product
	</note>
	<outline>
		<contour>
			<point x="149" y="-200" type="line"/>
			<point x="127" y="-200" type="line"/>
			<point x="127" y="693" type="line"/>
			<point x="149" y="693" type="line"/>
		</contour>
		<contour>
			<point x="680" y="678" type="line"/>
			<point x="28" y="678" type="line"/>
			<point x="28" y="700" type="line"/>
			<point x="680" y="700" type="line"/>
		</contour>
		<contour>
			<point x="581" y="-200" type="line"/>
			<point x="559" y="-200" type="line"/>
			<point x="559" y="693" type="line"/>
			<point x="581" y="693" type="line"/>
		</contour>
	</outline>
</glyph>
<glyph name="summation" format="2">
	<advance width="523"/>
	<unicode hex="2211"/>
	<guideline x="70" y="669" angle="270"/>
	<note>
		summation
	</note>
	<outline>
		<contour>
			<point x="489" y="0" type="line"/>
			<point x="64" y="0" type="line"/>
			<point x="59" y="15" type="line"/>
			<point x="351" y="347" type="line"/>
			<point x="352" y="330" type="line"/>
			<point x="69" y="663" type="line"/>
			<point x="72" y="676" type="line"/>
			<point x="479" y="676" type="line"/>
			<point x="479" y="654" type="line"/>
			<point x="98" y="654" type="line"/>
			<point x="96" y="667" type="line"/>
			<point x="370.49985" y="346" type="line"/>
			<point x="370.49985" y="331" type="line"/>
			<point x="91" y="16" type="line"/>
			<point x="91" y="22" type="line"/>
			<point x="489" y="22" type="line"/>
		</contour>
	</outline>
</glyph>
<glyph name="bulletoperator" format="2">
	<advance width="244"/>
	<unicode hex="2219"/>
	<note>
		bulletoperator
	</note>
	<outline>
		<contour>
			<point x="149" y="301" type="qcurve" smooth="yes"/>
			<point x="149" y="290"/>
			<point x="133.62009" y="273.99909"/>
			<point x="123" y="273.99909" type="qcurve" smooth="yes"/>
			<point x="111.49278" y="273.99909"/>
			<point x="95" y="290"/>
			<point x="95" y="301" type="qcurve" smooth="yes"/>
			<point x="95" y="312"/>
			<point x="111.49278" y="328.00091"/>
			<point x="123" y="328.00091" type="qcurve" smooth="yes"/>
			<point x="133.62009" y="328.00091"/>
			<point x="149" y="312"/>
		</contour>
	</outline>
</glyph>
<glyph name="radical" format="2">
	<advance width="684"/>
	<unicode hex="221A"/>
	<note>
		radical
	</note>
	<outline>
		<contour>
			<point x="219" y="-112" type="line"/>
			<point x="216" y="-112" type="line"/>
			<point x="47" y="309" type="line"/>
			<point x="73" y="309" type="line"/>
			<point x="224" y="-67" type="line"/>
			<point x="209" y="-67" type="line"/>
			<point x="480" y="700" type="line"/>
			<point x="664" y="700" type="line"/>
			<point x="664" y="678" type="line"/>
			<point x="480" y="678" type="line"/>
			<point x="503" y="691" type="line"/>
		</contour>
	</outline>
</glyph>
<glyph name="infinity" format="2">
	<advance width="867"/>
	<unicode hex="221E"/>
	<outline>
		<contour>
			<point x="203" y="47" type="qcurve" smooth="yes"/>
			<point x="128.4382" y="47"/>
			<point x="35" y="152"/>
			<point x="35" y="242" type="qcurve"/>
			<point x="35" y="332"/>
			<point x="128.4382" y="437"/>
			<point x="203" y="437" type="qcurve" smooth="yes"/>
			<point x="253.85714" y="437"/>
			<point x="334" y="393"/>
			<point x="381" y="331" type="qcurve" smooth="yes"/>
			<point x="515" y="153" type="line" smooth="yes"/>
			<point x="549" y="108"/>
			<point x="621.22628" y="69"/>
			<point x="662" y="69" type="qcurve"/>
			<point x="722.85987" y="69"/>
			<point x="809" y="162"/>
			<point x="809" y="242" type="qcurve"/>
			<point x="809" y="321"/>
			<point x="721.67073" y="415"/>
			<point x="655" y="415" type="qcurve" smooth="yes"/>
			<point x="622.3913" y="415"/>
			<point x="556" y="386"/>
			<point x="530" y="351" type="qcurve" smooth="yes"/>
			<point x="381" y="153" type="line" smooth="yes"/>
			<point x="334.05156" y="90.61214"/>
			<point x="253.85714" y="47"/>
		</contour>
		<contour>
			<point x="58" y="242" type="qcurve"/>
			<point x="58" y="162"/>
			<point x="144.14013" y="69"/>
			<point x="205" y="69" type="qcurve"/>
			<point x="245.77372" y="69"/>
			<point x="318" y="108"/>
			<point x="352" y="153" type="qcurve" smooth="yes"/>
			<point x="498" y="346" type="line" smooth="yes"/>
			<point x="539.89531" y="401.38215"/>
			<point x="616.20779" y="437"/>
			<point x="662" y="437" type="qcurve" smooth="yes"/>
			<point x="736.61111" y="437"/>
			<point x="832" y="331"/>
			<point x="832" y="242" type="qcurve"/>
			<point x="832" y="152"/>
			<point x="738.5618" y="47"/>
			<point x="664" y="47" type="qcurve" smooth="yes"/>
			<point x="613.14286" y="47"/>
			<point x="533" y="91"/>
			<point x="486" y="153" type="qcurve" smooth="yes"/>
			<point x="352" y="331" type="line" smooth="yes"/>
			<point x="316" y="379"/>
			<point x="245.77372" y="415"/>
			<point x="205" y="415" type="qcurve"/>
			<point x="144.14013" y="415"/>
			<point x="58" y="322"/>
		</contour>
	</outline>
</glyph>
<glyph name="integral" format="2">
	<advance width="553"/>
	<unicode hex="222B"/>
	<note>
		integral
	</note>
	<outline>
		<contour>
			<point x="107" y="-127" type="qcurve"/>
			<point x="80.97297" y="-127"/>
			<point x="25.45818" y="-102.54154"/>
			<point x="0" y="-81" type="qcurve"/>
			<point x="14" y="-61" type="line"/>
			<point x="44.29412" y="-87.3852"/>
			<point x="84.05051" y="-105"/>
			<point x="109" y="-105" type="qcurve"/>
			<point x="152.52727" y="-105"/>
			<point x="208.38079" y="-13.93558"/>
			<point x="223" y="68" type="qcurve" smooth="yes"/>
			<point x="309" y="550" type="line" smooth="yes"/>
			<point x="331" y="672"/>
			<point x="406" y="748"/>
			<point x="448" y="748" type="qcurve" smooth="yes"/>
			<point x="489" y="748"/>
			<point x="542" y="723"/>
			<point x="561" y="710" type="qcurve"/>
			<point x="548" y="688" type="line"/>
			<point x="529" y="702"/>
			<point x="481" y="723"/>
			<point x="445" y="723" type="qcurve" smooth="yes"/>
			<point x="405" y="723"/>
			<point x="349" y="635"/>
			<point x="334" y="551" type="qcurve" smooth="yes"/>
			<point x="248" y="71" type="line" smooth="yes"/>
			<point x="230.23793" y="-28.13711"/>
			<point x="164.63504" y="-127"/>
		</contour>
	</outline>
</glyph>
<glyph name="notequal" format="2">
	<advance width="566"/>
	<unicode hex="2260"/>
	<guideline x="334" y="509" angle="0"/>
	<note>
		notequal
	</note>
	<outline>
		<contour>
			<point x="142" y="46" type="line"/>
			<point x="400" y="516" type="line"/>
			<point x="426" y="516" type="line"/>
			<point x="168" y="46" type="line"/>
		</contour>
		<contour>
			<point x="501" y="349" type="line"/>
			<point x="65" y="349" type="line"/>
			<point x="65" y="371" type="line"/>
			<point x="501" y="371" type="line"/>
		</contour>
		<contour>
			<point x="65" y="191" type="line"/>
			<point x="65" y="213" type="line"/>
			<point x="501" y="213" type="line"/>
			<point x="501" y="191" type="line"/>
		</contour>
	</outline>
</glyph>
<glyph name="I.ss01" format="2">
	<advance width="308"/>
	<anchor x="176" y="0" name="ogonek"/>
	<anchor x="153" y="700" name="top"/>
	<anchor x="100" y="700" name="topleft"/>
	<anchor x="153" y="0" name="bottom"/>
	<note>
		I
	</note>
	<outline>
		<contour>
			<point x="164.50088" y="700" type="qcurve"/>
			<point x="164.50088" y="0" type="line"/>
			<point x="143.49912" y="0" type="line"/>
			<point x="143.49912" y="700" type="line"/>
			<point x="149.49954" y="700"/>
			<point x="158.50046" y="700"/>
		</contour>
	</outline>
</glyph>
<glyph name="J.ss01" format="2">
	<advance width="559"/>
	<anchor x="426" y="700" name="top"/>
	<anchor x="310" y="0" name="bottom"/>
	<note>
		J
	</note>
	<outline>
		<contour>
			<point x="209" y="-10" type="qcurve"/>
			<point x="140" y="-10"/>
			<point x="44" y="60"/>
			<point x="20" y="120" type="qcurve"/>
			<point x="36" y="135" type="line"/>
			<point x="64" y="72"/>
			<point x="151" y="12"/>
			<point x="211" y="12" type="qcurve"/>
			<point x="286" y="12"/>
			<point x="381" y="107"/>
			<point x="381" y="213" type="qcurve"/>
			<point x="381" y="700" type="line"/>
			<point x="403" y="700" type="line"/>
			<point x="403" y="213" type="line"/>
			<point x="403" y="97"/>
			<point x="294" y="-10"/>
		</contour>
	</outline>
</glyph>
<glyph name=".notdef" format="2">
	<advance width="584"/>
	<note>
		.notdef
	</note>
	<outline>
		<contour>
			<point x="40" y="35" type="qcurve"/>
			<point x="40" y="665" type="line" smooth="yes"/>
			<point x="40" y="682"/>
			<point x="58" y="700"/>
			<point x="75" y="700" type="qcurve"/>
			<point x="509" y="700" type="line" smooth="yes"/>
			<point x="526" y="700"/>
			<point x="544" y="682"/>
			<point x="544" y="665" type="qcurve"/>
			<point x="544" y="35" type="line" smooth="yes"/>
			<point x="544" y="18"/>
			<point x="526" y="0"/>
			<point x="509" y="0" type="qcurve"/>
			<point x="75" y="0" type="line" smooth="yes"/>
			<point x="58" y="0"/>
			<point x="40" y="18"/>
		</contour>
		<contour>
			<point x="517" y="678" type="qcurve"/>
			<point x="84" y="678" type="line" smooth="yes"/>
			<point x="81" y="678"/>
			<point x="79" y="674"/>
			<point x="81" y="672" type="qcurve"/>
			<point x="516" y="47" type="line"/>
			<point x="518" y="44"/>
			<point x="522" y="45"/>
			<point x="522" y="49" type="qcurve"/>
			<point x="522" y="673" type="line" smooth="yes"/>
			<point x="522" y="675"/>
			<point x="519" y="678"/>
		</contour>
		<contour>
			<point x="62" y="650" type="qcurve"/>
			<point x="62" y="27" type="line" smooth="yes"/>
			<point x="62" y="25"/>
			<point x="65" y="22"/>
			<point x="67" y="22" type="qcurve"/>
			<point x="499" y="22" type="line" smooth="yes"/>
			<point x="502" y="22"/>
			<point x="504" y="26"/>
			<point x="502" y="28" type="qcurve"/>
			<point x="68" y="652" type="line"/>
			<point x="66" y="655"/>
			<point x="62" y="654"/>
		</contour>
	</outline>
</glyph>
<glyph name="a.ss01" format="2">
	<advance width="537"/>
	<guideline x="488" y="297" angle="0"/>
	<guideline x="474" y="275" angle="0"/>
	<guideline x="268.5" y="0" angle="270" name="center"/>
	<anchor x="494" y="10" name="ogonek"/>
	<anchor x="260" y="-13" name="bottom"/>
	<anchor x="262" y="530" name="top"/>
	<note>
		a
	</note>
	<outline>
		<contour>
			<point x="272" y="530" type="qcurve"/>
			<point x="362" y="530"/>
			<point x="464" y="443"/>
			<point x="464" y="364" type="qcurve"/>
			<point x="464" y="0" type="line"/>
			<point x="442" y="0" type="line"/>
			<point x="442" y="367" type="line"/>
			<point x="442" y="431"/>
			<point x="353" y="508"/>
			<point x="271" y="508" type="qcurve"/>
			<point x="214.59375" y="508"/>
			<point x="116" y="459"/>
			<point x="81" y="414" type="qcurve"/>
			<point x="65" y="430" type="line"/>
			<point x="105" y="479"/>
			<point x="209.60287" y="530"/>
		</contour>
		<contour>
			<point x="246" y="287" type="qcurve"/>
			<point x="450" y="287" type="line"/>
			<point x="450" y="265" type="line"/>
			<point x="240" y="265" type="line"/>
			<point x="155" y="265"/>
			<point x="62" y="205"/>
			<point x="62" y="149" type="qcurve"/>
			<point x="62" y="88"/>
			<point x="155" y="12"/>
			<point x="219" y="12" type="qcurve"/>
			<point x="293" y="12"/>
			<point x="414" y="92"/>
			<point x="447" y="157" type="qcurve"/>
			<point x="460" y="146" type="line"/>
			<point x="424" y="77"/>
			<point x="298" y="-10"/>
			<point x="218" y="-10" type="qcurve"/>
			<point x="142" y="-10"/>
			<point x="40" y="77"/>
			<point x="40" y="149" type="qcurve"/>
			<point x="40" y="215"/>
			<point x="144" y="287"/>
		</contour>
	</outline>
</glyph>
<glyph name="acutecomb.case" format="2">
	<advance width="0"/>
	<anchor x="125" y="703" name="top"/>
	<anchor x="77" y="515" name="_top"/>
	<outline>
		<contour>
			<point x="208" y="704" type="line"/>
			<point x="62" y="605" type="line"/>
			<point x="52" y="620" type="line"/>
			<point x="194" y="725" type="line"/>
		</contour>
	</outline>
</glyph>
<glyph name="dblgravecomb.case" format="2">
	<advance width="0"/>
	<anchor x="248" y="709" name="top"/>
	<anchor x="248" y="490" name="_top"/>
	<outline>
		<contour>
			<point x="209" y="640" type="line"/>
			<point x="199" y="625" type="line"/>
			<point x="53" y="724" type="line"/>
			<point x="67" y="745" type="line"/>
		</contour>
		<contour>
			<point x="346" y="640" type="line"/>
			<point x="336" y="625" type="line"/>
			<point x="190" y="724" type="line"/>
			<point x="204" y="745" type="line"/>
		</contour>
	</outline>
</glyph>
<glyph name="dieresiscomb.case" format="2">
	<advance width="0"/>
	<anchor x="167" y="682" name="top"/>
	<anchor x="167" y="525" name="_top"/>
	<outline>
		<contour>
			<point x="116" y="683" type="qcurve" smooth="yes"/>
			<point x="116" y="671"/>
			<point x="103" y="656"/>
			<point x="89" y="656" type="qcurve" smooth="yes"/>
			<point x="77" y="656"/>
			<point x="62" y="671"/>
			<point x="62" y="683" type="qcurve" smooth="yes"/>
			<point x="62" y="694"/>
			<point x="76" y="710"/>
			<point x="89" y="710" type="qcurve" smooth="yes"/>
			<point x="103" y="710"/>
			<point x="116" y="695"/>
		</contour>
		<contour>
			<point x="266" y="683" type="qcurve" smooth="yes"/>
			<point x="266" y="671"/>
			<point x="253" y="656"/>
			<point x="239" y="656" type="qcurve" smooth="yes"/>
			<point x="227" y="656"/>
			<point x="212" y="671"/>
			<point x="212" y="683" type="qcurve" smooth="yes"/>
			<point x="212" y="694"/>
			<point x="226" y="710"/>
			<point x="239" y="710" type="qcurve" smooth="yes"/>
			<point x="253" y="710"/>
			<point x="266" y="695"/>
		</contour>
	</outline>
</glyph>
<glyph name="dotbelowcomb.case" format="2">
	<advance width="0"/>
	<anchor x="105" y="0" name="_bottom"/>
	<anchor x="105" y="-194" name="bottom"/>
	<outline>
		<contour>
			<point x="135" y="-105" type="qcurve" smooth="yes"/>
			<point x="135" y="-118"/>
			<point x="121" y="-134"/>
			<point x="107" y="-134" type="qcurve" smooth="yes"/>
			<point x="93" y="-134"/>
			<point x="79" y="-118"/>
			<point x="79" y="-105" type="qcurve" smooth="yes"/>
			<point x="79" y="-93"/>
			<point x="93" y="-76"/>
			<point x="107" y="-76" type="qcurve" smooth="yes"/>
			<point x="120" y="-76"/>
			<point x="135" y="-92"/>
		</contour>
	</outline>
</glyph>
<glyph name="eight.dnom" format="2">
	<advance width="353"/>
	<outline>
		<contour>
			<point x="288" y="93" type="qcurve"/>
			<point x="288" y="50.08333"/>
			<point x="221" y="-10"/>
			<point x="176" y="-10" type="qcurve"/>
			<point x="129" y="-10"/>
			<point x="62" y="50"/>
			<point x="62" y="93" type="qcurve"/>
			<point x="62" y="122.68421"/>
			<point x="96.05691" y="172.02439"/>
			<point x="131" y="187" type="qcurve"/>
			<point x="134" y="177" type="line"/>
			<point x="104.08609" y="191.95696"/>
			<point x="70" y="234"/>
			<point x="70" y="264" type="qcurve"/>
			<point x="70" y="303"/>
			<point x="130" y="358"/>
			<point x="176" y="358" type="qcurve"/>
			<point x="218" y="358"/>
			<point x="279" y="303"/>
			<point x="279" y="264" type="qcurve"/>
			<point x="279" y="237"/>
			<point x="244.51702" y="193.0516"/>
			<point x="217" y="177" type="qcurve"/>
			<point x="222" y="187" type="line"/>
			<point x="251.9503" y="174.02154"/>
			<point x="288" y="122.24444"/>
		</contour>
		<contour>
			<point x="92" y="263" type="qcurve"/>
			<point x="92" y="233"/>
			<point x="141" y="192"/>
			<point x="176" y="192" type="qcurve"/>
			<point x="209" y="192"/>
			<point x="257" y="233"/>
			<point x="257" y="263" type="qcurve"/>
			<point x="257" y="294"/>
			<point x="208" y="336"/>
			<point x="176" y="336" type="qcurve"/>
			<point x="140" y="336"/>
			<point x="92" y="296"/>
		</contour>
		<contour>
			<point x="84" y="92" type="qcurve"/>
			<point x="84" y="59"/>
			<point x="138" y="12"/>
			<point x="176" y="12" type="qcurve"/>
			<point x="211" y="12"/>
			<point x="266" y="59.05882"/>
			<point x="266" y="92" type="qcurve"/>
			<point x="266" y="125.06667"/>
			<point x="213" y="172"/>
			<point x="176" y="172" type="qcurve"/>
			<point x="134" y="172"/>
			<point x="84" y="125"/>
		</contour>
	</outline>
</glyph>
<glyph name="five.dnom" format="2">
	<advance width="355"/>
	<outline>
		<contour>
			<point x="306" y="114" type="qcurve"/>
			<point x="306" y="57"/>
			<point x="229" y="-10"/>
			<point x="167" y="-10" type="qcurve"/>
			<point x="142" y="-10"/>
			<point x="84.98551" y="11.50586"/>
			<point x="64.9997" y="28" type="qcurve"/>
			<point x="77" y="48" type="line"/>
			<point x="100" y="29"/>
			<point x="145" y="12"/>
			<point x="170" y="12" type="qcurve"/>
			<point x="222" y="12"/>
			<point x="284" y="66"/>
			<point x="284" y="112" type="qcurve"/>
			<point x="284" y="157"/>
			<point x="225" y="209"/>
			<point x="177" y="209" type="qcurve"/>
			<point x="149.69313" y="209"/>
			<point x="109" y="194"/>
			<point x="88" y="171" type="qcurve"/>
			<point x="65.99994" y="174.50015" type="line"/>
			<point x="90.49991" y="345" type="line"/>
			<point x="289" y="345" type="line"/>
			<point x="289" y="323" type="line"/>
			<point x="95" y="323" type="line"/>
			<point x="111" y="332" type="line"/>
			<point x="89" y="190" type="line"/>
			<point x="79" y="190" type="line"/>
			<point x="93" y="208"/>
			<point x="146.02857" y="231"/>
			<point x="181" y="231" type="qcurve"/>
			<point x="237" y="231"/>
			<point x="306" y="163.26316"/>
		</contour>
	</outline>
</glyph>
<glyph name="four.dnom" format="2">
	<advance width="390"/>
	<outline>
		<contour>
			<point x="279" y="0" type="line"/>
			<point x="257" y="0" type="line"/>
			<point x="257" y="90" type="line"/>
			<point x="257" y="102" type="line"/>
			<point x="257" y="344" type="line"/>
			<point x="269" y="334" type="line"/>
			<point x="83" y="94" type="line"/>
			<point x="83" y="107" type="line"/>
			<point x="340" y="107" type="line"/>
			<point x="340" y="85" type="line"/>
			<point x="61" y="85" type="line"/>
			<point x="58" y="99" type="line"/>
			<point x="257" y="356" type="line"/>
			<point x="279" y="356" type="line"/>
		</contour>
	</outline>
</glyph>
<glyph name="gravecomb.case" format="2">
	<advance width="0"/>
	<anchor x="125" y="764" name="top"/>
	<anchor x="167" y="519" name="_top"/>
	<outline>
		<contour>
			<point x="213" y="620" type="line"/>
			<point x="203" y="605" type="line"/>
			<point x="57" y="704" type="line"/>
			<point x="71" y="725" type="line"/>
		</contour>
	</outline>
</glyph>
<glyph name="hookabovecomb.case" format="2">
	<advance width="0"/>
	<anchor x="155" y="760" name="top"/>
	<anchor x="165" y="534" name="_top"/>
	<outline>
		<contour>
			<point x="83" y="698" type="qcurve"/>
			<point x="71" y="713" type="line"/>
			<point x="88" y="734"/>
			<point x="132" y="759"/>
			<point x="159" y="759" type="qcurve"/>
			<point x="192" y="759"/>
			<point x="229" y="723"/>
			<point x="229" y="694" type="qcurve"/>
			<point x="229" y="675"/>
			<point x="211.70864" y="647.70864"/>
			<point x="200" y="636" type="qcurve" smooth="yes"/>
			<point x="183.71007" y="620.72819"/>
			<point x="168" y="598.0001"/>
			<point x="167" y="579" type="qcurve"/>
			<point x="146" y="579" type="line"/>
			<point x="146" y="597.69841"/>
			<point x="165.59579" y="629.62947"/>
			<point x="178" y="641" type="qcurve" smooth="yes"/>
			<point x="186.90577" y="649.90577"/>
			<point x="208" y="676"/>
			<point x="208" y="692" type="qcurve"/>
			<point x="208" y="715"/>
			<point x="182" y="738"/>
			<point x="156" y="738" type="qcurve"/>
			<point x="135" y="738"/>
			<point x="100.69487" y="717.77662"/>
		</contour>
	</outline>
</glyph>
<glyph name="macronbelowcomb.case" format="2">
	<advance width="0"/>
	<anchor x="198" y="0" name="_bottom"/>
	<anchor x="198" y="-230" name="bottom"/>
	<outline>
		<contour>
			<point x="342" y="-108" type="line"/>
			<point x="87" y="-108" type="line"/>
			<point x="87" y="-98" type="line"/>
			<point x="87" y="-86" type="line"/>
			<point x="342" y="-86" type="line"/>
			<point x="342" y="-97" type="line"/>
		</contour>
	</outline>
</glyph>
<glyph name="macroncomb.case" format="2">
	<advance width="0"/>
	<anchor x="214" y="709" name="top"/>
	<anchor x="214" y="536" name="_top"/>
	<outline>
		<contour>
			<point x="349" y="613" type="line"/>
			<point x="79" y="613" type="line"/>
			<point x="79" y="635" type="line"/>
			<point x="349" y="635" type="line"/>
		</contour>
	</outline>
</glyph>
<glyph name="ogonekcomb.case" format="2">
	<advance width="0"/>
	<anchor x="238" y="0" name="_ogonek"/>
	<outline>
		<contour>
			<point x="156" y="-230" type="qcurve" smooth="yes"/>
			<point x="114" y="-230"/>
			<point x="56" y="-172"/>
			<point x="56" y="-130" type="qcurve" smooth="yes"/>
			<point x="56" y="-70"/>
			<point x="152" y="8"/>
			<point x="211" y="18" type="qcurve"/>
			<point x="216" y="8" type="line"/>
			<point x="216" y="0" type="line"/>
			<point x="158" y="-10"/>
			<point x="78" y="-77"/>
			<point x="78" y="-130" type="qcurve" smooth="yes"/>
			<point x="78" y="-163"/>
			<point x="123" y="-208"/>
			<point x="156" y="-208" type="qcurve" smooth="yes"/>
			<point x="182" y="-208"/>
			<point x="220" y="-183"/>
			<point x="231" y="-163" type="qcurve"/>
			<point x="246" y="-176" type="line"/>
			<point x="234" y="-200"/>
			<point x="186" y="-230"/>
		</contour>
	</outline>
</glyph>
<glyph name="ring.case" format="2">
	<advance width="336"/>
	<anchor x="164" y="628" name="_top"/>
	<outline>
		<contour>
			<point x="266" y="835" type="qcurve"/>
			<point x="266" y="797"/>
			<point x="207.2" y="740"/>
			<point x="168" y="740" type="qcurve"/>
			<point x="129.78788" y="740"/>
			<point x="71" y="797"/>
			<point x="71" y="835" type="qcurve"/>
			<point x="71" y="874"/>
			<point x="128.80808" y="931"/>
			<point x="168" y="931" type="qcurve"/>
			<point x="207.2" y="931"/>
			<point x="266" y="874"/>
		</contour>
		<contour>
			<point x="93" y="835" type="qcurve"/>
			<point x="93" y="806"/>
			<point x="137.80519" y="762"/>
			<point x="168" y="762" type="qcurve"/>
			<point x="199.17949" y="762"/>
			<point x="244" y="806"/>
			<point x="244" y="835" type="qcurve"/>
			<point x="244" y="868"/>
			<point x="199.17949" y="909"/>
			<point x="168" y="909" type="qcurve"/>
			<point x="135.85714" y="909"/>
			<point x="93" y="867"/>
		</contour>
	</outline>
</glyph>
<glyph name="seven.dnom" format="2">
	<advance width="326"/>
	<outline>
		<contour>
			<point x="129" y="0" type="line"/>
			<point x="112" y="0" type="line"/>
			<point x="109" y="9" type="line"/>
			<point x="267.99903" y="335.49942" type="line"/>
			<point x="269" y="322" type="line"/>
			<point x="62" y="322" type="line"/>
			<point x="62" y="344" type="line"/>
			<point x="279.49979" y="344" type="line"/>
			<point x="289" y="330" type="line"/>
		</contour>
	</outline>
</glyph>
<glyph name="three.dnom" format="2">
	<advance width="342"/>
	<outline>
		<contour>
			<point x="297" y="108" type="qcurve"/>
			<point x="297" y="57"/>
			<point x="226" y="-10"/>
			<point x="174" y="-10" type="qcurve"/>
			<point x="146" y="-10"/>
			<point x="86.99982" y="9"/>
			<point x="65.99982" y="24" type="qcurve"/>
			<point x="78" y="42" type="line"/>
			<point x="109" y="23"/>
			<point x="151" y="12"/>
			<point x="172" y="12" type="qcurve"/>
			<point x="217" y="12"/>
			<point x="275" y="63"/>
			<point x="275" y="107" type="qcurve"/>
			<point x="275" y="146"/>
			<point x="219" y="194"/>
			<point x="181" y="194" type="qcurve"/>
			<point x="156.5443" y="194"/>
			<point x="123.81959" y="184.1589"/>
			<point x="97" y="169" type="qcurve"/>
			<point x="92" y="184" type="line"/>
			<point x="249" y="334" type="line"/>
			<point x="254" y="329" type="line"/>
			<point x="80" y="329" type="line"/>
			<point x="80" y="350" type="line"/>
			<point x="266" y="350" type="line"/>
			<point x="270" y="326" type="line"/>
			<point x="124" y="187" type="line"/>
			<point x="107" y="187" type="line"/>
			<point x="134.40275" y="205.2685"/>
			<point x="166.4359" y="215"/>
			<point x="183" y="215" type="qcurve"/>
			<point x="229.82143" y="215"/>
			<point x="297" y="155"/>
		</contour>
	</outline>
</glyph>
<glyph name="two.dnom" format="2">
	<advance width="346"/>
	<outline>
		<contour>
			<point x="295" y="0" type="line"/>
			<point x="75" y="0" type="line"/>
			<point x="72" y="26" type="line"/>
			<point x="146" y="111" type="line" smooth="yes"/>
			<point x="165.87504" y="133.82944"/>
			<point x="196" y="166"/>
			<point x="207" y="179" type="qcurve" smooth="yes"/>
			<point x="232.20609" y="208.23906"/>
			<point x="260" y="255"/>
			<point x="260" y="276" type="qcurve"/>
			<point x="260" y="305"/>
			<point x="216.58824" y="339"/>
			<point x="188" y="339" type="qcurve"/>
			<point x="159" y="339"/>
			<point x="112.94347" y="308.9039"/>
			<point x="93" y="275" type="qcurve"/>
			<point x="74" y="288" type="line"/>
			<point x="91.93486" y="319.8842"/>
			<point x="150" y="361"/>
			<point x="188" y="361" type="qcurve"/>
			<point x="227.25275" y="361"/>
			<point x="282" y="314"/>
			<point x="282" y="277" type="qcurve"/>
			<point x="282" y="235"/>
			<point x="215.82161" y="154.7418"/>
			<point x="157" y="89" type="qcurve" smooth="yes"/>
			<point x="89" y="13" type="line"/>
			<point x="90" y="22" type="line"/>
			<point x="295" y="22" type="line"/>
		</contour>
	</outline>
</glyph>
